<svg width="266" height="254" viewBox="0 0 266 254" fill="none" xmlns="http://www.w3.org/2000/svg">
    <path d="M63.805 23.8a2.723 2.723 0 0 0 1.19 1.445c.567.34 1.048.765 1.445 1.275.397.453.85 1.077 1.36 1.87.567.793.992 1.445 1.275 1.955.057.283.085.595.085.935 0 .34.057.68.17 1.02l.17.17.085.085c.114.453.17.878.17 1.275v1.785c.057.17.085.34.085.51 0 .453-.056.907-.17 1.36-.056.397-.113.822-.17 1.275a1.51 1.51 0 0 0-.17.68c0 .17-.056.34-.17.51a4.33 4.33 0 0 0-.085.85c0 .227-.056.397-.17.51l-.34.51c-.227.34-.51.708-.85 1.105l-.85 1.02-.34.51a4.966 4.966 0 0 1-.51.425c-.17.113-.34.283-.51.51-.283.227-.68.538-1.19.935-.453.34-.85.567-1.19.68-.34.113-.793.255-1.36.425-.51.17-1.048.34-1.615.51-.51.17-1.02.312-1.53.425-.51.113-.935.17-1.275.17h-.935c-.17.057-.453.085-.85.085h-4.165c-1.303.057-2.663.142-4.08.255-.453 0-.907-.028-1.36-.085a9.021 9.021 0 0 0-1.275-.085c-.793 0-1.587.028-2.38.085-.793.057-1.615.085-2.465.085-.17 0-.368-.028-.595-.085a2.495 2.495 0 0 0-.595-.085c-.227 0-.425.028-.595.085-.113.113-.311.17-.595.17-.283 0-.736-.085-1.36-.255-.17-.057-.425-.085-.765-.085-.566 0-1.02-.312-1.36-.935-.283-.623-.481-1.162-.595-1.615-.056-.34-.028-.737.085-1.19.114-.453.227-.963.34-1.53.17-.567.17-1.218 0-1.955-.17-.623-.255-1.445-.255-2.465v-1.275c0-.227.029-.453.085-.68.113-.227.17-.453.17-.68a5.72 5.72 0 0 0-.085-.935 7.857 7.857 0 0 1-.085-1.105c0-.34.028-.652.085-.935a5.72 5.72 0 0 0 .085-.935 6.387 6.387 0 0 0-.425-1.105c-.17-.34-.198-.822-.085-1.445 0-.453.085-.822.255-1.105a1.64 1.64 0 0 0 .255-.85c0-.34-.085-.595-.255-.765a3.038 3.038 0 0 1-.255-.765c.17-.68.17-1.417 0-2.21-.113-.793-.028-1.502.255-2.125-.227-.34-.34-.68-.34-1.02 0-.397.029-.765.085-1.105.057-.397.142-.765.255-1.105a8.9 8.9 0 0 0 .255-1.19V16.32c0-.51-.056-.907-.17-1.19a.946.946 0 0 0-.085-.425v-.425c0-.453.057-.907.17-1.36.17-.453.255-.878.255-1.275 0-.397-.113-.793-.34-1.19a3.202 3.202 0 0 1-.255-1.275c0-.34.029-.708.085-1.105.114-.397.17-.793.17-1.19V4.59c0-.793.057-1.502.17-2.125 0-.17.057-.34.17-.51.17-.227.255-.482.255-.765.453-.51 1.077-.765 1.87-.765.397 0 .794.028 1.19.085l1.36.17c.51.057 1.048.113 1.615.17h1.7c.623 0 1.077-.028 1.36-.085.17 0 .34-.028.51-.085.17-.113.34-.17.51-.17a3.94 3.94 0 0 1 .765-.085A3.16 3.16 0 0 1 45.87.34c.454 0 .964.057 1.53.17.284 0 .538.057.765.17.227.057.482.085.765.085h.85c.34-.057.652-.085.935-.085.283 0 .51.057.68.17.17.057.368.085.595.085h2.21c.51-.057.992-.085 1.445-.085.51 0 .85.028 1.02.085a8.37 8.37 0 0 1 1.445.255c.397.057.85.142 1.36.255a12.57 12.57 0 0 1 1.955.935c.623.34 1.247.708 1.87 1.105.453.283.822.595 1.105.935.34.34.765.652 1.275.935.057.283.17.538.34.765.17.227.34.482.51.765.113.113.198.255.255.425.057.113.142.227.255.34.057.113.142.255.255.425.17.17.312.34.425.51.057.227.085.482.085.765 0 .227.057.482.17.765.057.283.198.708.425 1.275.057.17.085.397.085.68 0 .283.057.51.17.68.227.85.283 1.643.17 2.38-.113.737-.368 1.502-.765 2.295a1.4 1.4 0 0 0-.085.425c0 .113-.056.255-.17.425a.987.987 0 0 1-.17.255l-.255.255c-.283.51-.538 1.02-.765 1.53-.17.453-.368.822-.595 1.105a5.92 5.92 0 0 1-1.19 1.19c-.453.283-.793.68-1.02 1.19zM37.965 3.655c.453-.113.765-.17.935-.17.227-.057.085-.085-.425-.085h-.51c-.34 0-.51.085-.51.255h.51zm3.4-.17h-.425a.946.946 0 0 0-.425-.085c-.17 0-.283.028-.34.085.114 0 .227.057.34.17.17.057.34.085.51.085.17 0 .284-.085.34-.255zm2.635 0c-.113-.057-.453-.085-1.02-.085 0 .34.17.51.51.51.227 0 .397-.142.51-.425zm3.315 0c-.226-.113-.538-.17-.935-.17-.227 0-.397.057-.51.17a.562.562 0 0 1 .51.085c.227.057.425.085.595.085.17 0 .283-.057.34-.17zm2.21.17c.17 0 .34.028.51.085.17.057.312.085.425.085.283 0 .482-.142.595-.425h-.85c-.396 0-.623.085-.68.255zm2.72-.17c0 .057.114.113.34.17.227.057.482.085.765.085.397 0 .623-.085.68-.255h-.255c-.227 0-.453-.028-.68-.085a1.398 1.398 0 0 0-.425-.085c-.227 0-.368.057-.425.17zM56.41 3.4h-1.19c-.283 0-.453.028-.51.085.114.057.255.113.425.17.227.057.454.085.68.085.34 0 .538-.113.595-.34zM36.605 5.185c.057-.057.142-.085.255-.085.114 0 .199.028.255.085H37.795c0-.227-.198-.34-.595-.34-.397 0-.595.113-.595.34zm2.72-.34c-.056.057-.17.085-.34.085h-.425c-.17 0-.255.028-.255.085.114.113.255.17.425.17.284 0 .482-.113.595-.34zm2.295.17c-.113-.113-.311-.17-.595-.17-.227 0-.396.057-.51.17.114.113.34.17.68.17.283 0 .425-.057.425-.17zm5.78.17c.17.057.425.085.765.085h.595c.17-.057.369-.085.595-.085.114 0 .142-.028.085-.085 0-.057-.085-.085-.255-.085-.227-.057-.538-.085-.935-.085h-.68c-.283 0-.51-.028-.68-.085-.056.227.029.34.255.34h.255zm2.38 0h.34c.284 0 .397-.113.34-.34-.34 0-.566.113-.68.34zm3.57-.17c-.227-.113-.51-.17-.85-.17-.283 0-.481.057-.595.17.114.113.397.17.85.17.34 0 .538-.057.595-.17zm1.36 0c-.056 0-.085.028-.085.085.057.057.142.085.255.085h.255c.227 0 .397-.028.51-.085.113-.057.283-.085.51-.085h.255a1.687 1.687 0 0 0-.765-.17c-.397 0-.708.057-.935.17zm2.89.17H58.45c.227 0 .34-.113.34-.34h-.425c-.51 0-.765.113-.765.34zm2.55-.34h-.68c-.17.227-.085.34.255.34s.482-.113.425-.34zm-23.46 1.53c0 .34.142.51.425.51.227 0 .397-.113.51-.34-.34-.113-.566-.17-.68-.17h-.255zm1.615.34c.114 0 .227.028.34.085h.34c.227 0 .34-.142.34-.425-.453 0-.793.113-1.02.34zm5.355-.17c-.056 0-.113.028-.17.085h-.085a.755.755 0 0 1-.34-.085c-.056-.113-.142-.17-.255-.17-.056.227.057.34.34.34.34 0 .51-.057.51-.17zm4.08 0a3.16 3.16 0 0 1-.765-.085 3.16 3.16 0 0 0-.765-.085c-.056.34.17.51.68.51.453 0 .737-.113.85-.34zm.425.17h.425c.17-.057.255-.17.255-.34h-.34c-.283 0-.397.113-.34.34zm4.42-.34h-1.7c0 .227.199.34.595.34.623 0 .992-.113 1.105-.34zm2.125.34c0-.227-.227-.34-.68-.34-.397 0-.708.057-.935.17.284 0 .51.057.68.17.17.057.369.085.595.085h.085c.057-.057.142-.085.255-.085zm.68 0c.227.113.482.17.765.17.453 0 .709-.113.765-.34-.227-.113-.425-.17-.595-.17-.397 0-.708.113-.935.34zm3.91 1.36c.114 0 .199.028.255.085h.17c.114 0 .198-.085.255-.255h-.17c0-.057-.028-.085-.085-.085-.283 0-.425.085-.425.255zm-18.615 0h-.17a.755.755 0 0 1-.34-.085c-.113-.113-.255-.142-.425-.085-.056.227.085.34.425.34.34 0 .51-.057.51-.17zm21.76 0h.255c.17 0 .34.057.51.17.17.057.368.057.595 0 .057-.113 0-.198-.17-.255a1.604 1.604 0 0 0-.51-.085c-.227 0-.425.028-.595.085-.17 0-.198.028-.085.085zM47.57 19.635c.453 0 .794.057 1.02.17.227.113.425.17.595.17h2.04c.68 0 1.36-.057 2.04-.17 1.303-.17 2.437-.595 3.4-1.275.737-.453 1.247-1.275 1.53-2.465.34-1.247.312-2.408-.085-3.485 0-.17-.198-.51-.595-1.02-.34-.51-.595-.85-.765-1.02-.283-.227-.708-.453-1.275-.68a4.873 4.873 0 0 0-1.7-.51 1.883 1.883 0 0 0-.595-.085h-.68c-.51 0-1.048.028-1.615.085H46.72c-.51 0-.992.028-1.445.085-.396 0-.708.057-.935.17-.453.453-.652.935-.595 1.445.057.51.085 1.218.085 2.125 0 .453.029.935.085 1.445.057.51.029.992-.085 1.445 0 .283-.056.538-.17.765-.056.17-.085.368-.085.595-.056.793 0 1.332.17 1.615.227.283.482.595.765.935h.34c.567 0 1.048-.057 1.445-.17.397-.113.822-.17 1.275-.17zm13.6-10.2c0 .17.057.312.17.425.397 0 .623-.085.68-.255l-.34-.17c-.056-.057-.142-.085-.255-.085-.113 0-.198.028-.255.085zm-21.335.255.34.17c.17.057.312.085.425.085.283 0 .453-.113.51-.34a3.295 3.295 0 0 0-.425-.17.754.754 0 0 0-.34-.085c-.283 0-.453.113-.51.34zm25.16-.085c.057.057.114.085.17.085.113 0 .17.028.17.085h.17c.057 0 .057-.057 0-.17-.17.057-.368.057-.595 0a.914.914 0 0 0-.51-.17c-.227 0-.368.057-.425.17.057.057.142.085.255.085h.34a.946.946 0 0 1 .425-.085zm-27.03 0a.754.754 0 0 1-.34.085.754.754 0 0 0-.34-.085c-.113 0-.17.028-.17.085.113.113.283.17.51.17.227 0 .34-.085.34-.255zm2.55 6.205c.057-.057.17-.085.34-.085h.34c.114 0 .17-.028.17-.085 0-.113-.142-.17-.425-.17-.283 0-.425.113-.425.34zm17.595 7.565c0-.113-.142-.17-.425-.17-.17 0-.255.057-.255.17.114.113.284.17.51.17.114 0 .17-.057.17-.17zM55.135 39.27a9.887 9.887 0 0 0 1.53-.425c.51-.17.992-.312 1.445-.425.17-.623.453-1.133.85-1.53.397-.453.623-.963.68-1.53.283-1.303.114-2.578-.51-3.825-.623-1.247-1.53-2.097-2.72-2.55-.453-.113-.963-.142-1.53-.085a9.99 9.99 0 0 1-1.785-.17c-.453 0-.878-.028-1.275-.085a4.04 4.04 0 0 0-1.105-.17h-4.76c-.793 0-1.445.227-1.955.68-.227.793-.283 1.757-.17 2.89a17.033 17.033 0 0 1 0 3.4c-.113.85-.17 1.615-.17 2.295.057.68.34 1.247.85 1.7h1.19c.907 0 1.87.028 2.89.085 1.077.057 2.097.085 3.06.085 1.474 0 2.635-.113 3.485-.34zM75.535 30.09c0-.453.057-.907.17-1.36a5.98 5.98 0 0 0 .34-1.36 4.33 4.33 0 0 0-.085-.85c0-.34.028-.68.085-1.02 0-.283.057-.567.17-.85a1.64 1.64 0 0 0 .255-.85c0-.227-.028-.453-.085-.68a3.159 3.159 0 0 1-.085-.765c0-.17.028-.34.085-.51.057-.227.085-.453.085-.68 0-.34-.057-.708-.17-1.105a9.038 9.038 0 0 1-.085-1.275 20.847 20.847 0 0 1-.085-3.23c.057-1.02.028-2.068-.085-3.145a8.112 8.112 0 0 1-.17-.595 3.159 3.159 0 0 1-.085-.765c0-.17.028-.368.085-.595.113-.283.17-.567.17-.85a5.73 5.73 0 0 0-.085-.935V7.565c-.113-.68-.198-1.615-.255-2.805-.057-1.19.057-2.097.34-2.72.34-.85 1.048-1.36 2.125-1.53a17.297 17.297 0 0 1 3.4-.34c1.077 0 1.983.113 2.72.34.737.17 1.417.68 2.04 1.53l.34.34.34.34c0 .623-.057 1.218-.17 1.785a9.081 9.081 0 0 0-.17 1.785c0 .623.057 1.218.17 1.785.113.567.17 1.162.17 1.785v2.38c0 .453.028.878.085 1.275a3.31 3.31 0 0 1-.085 1.275c0 .283-.028.538-.085.765a3.164 3.164 0 0 0-.085.765 7.433 7.433 0 0 0-.085 1.955c.057.623.142 1.247.255 1.87 0 .283.028.567.085.85.057.283.085.567.085.85 0 .793-.028 1.587-.085 2.38a34.594 34.594 0 0 0-.085 2.465c0 .453.028.963.085 1.53.057.51.085.992.085 1.445 0 .283-.028.51-.085.68a2.21 2.21 0 0 0-.085.68v1.53c0 .283-.028.567-.085.85a3.66 3.66 0 0 0-.085.68c0 .227.028.482.085.765.057.227.085.425.085.595 0 .567-.028 1.105-.085 1.615 0 .51.085.992.255 1.445.283.113.482.227.595.34.17.057.397.085.68.085.283 0 .538-.028.765-.085.227-.057.482-.085.765-.085.453 0 .85.057 1.19.17.397.113.822.17 1.275.17.34 0 .68-.057 1.02-.17.397-.113.822-.17 1.275-.17.283 0 .595.057.935.17.397.113.737.17 1.02.17.68 0 1.417-.028 2.21-.085a33.378 33.378 0 0 1 2.38-.085c1.36 0 2.465.113 3.315.34.85.17 1.388.85 1.615 2.04v2.125c0 .85-.028 1.672-.085 2.465 0 .737-.17 1.332-.51 1.785-.283.397-.68.652-1.19.765-.453.113-.992.17-1.615.17-.34 0-.68-.028-1.02-.085h-1.02c-1.417 0-2.805.057-4.165.17-1.36.113-2.748.17-4.165.17-.737 0-1.502-.028-2.295-.085a33.377 33.377 0 0 0-2.38-.085h-1.19l-1.02.17c-.283.057-.708.085-1.275.085-.623 0-1.275-.028-1.955-.085a21.598 21.598 0 0 0-1.955-.085h-1.105l-1.02.17a6.267 6.267 0 0 1-1.105-.68 10.364 10.364 0 0 1-.85-.765 9.15 9.15 0 0 0-.34-1.615c-.113-.567-.227-1.162-.34-1.785 0-.283.028-.538.085-.765a4.322 4.322 0 0 0 0-1.7 6.201 6.201 0 0 1-.085-1.02c0-.453.057-.907.17-1.36a5.59 5.59 0 0 0 .17-1.36c0-.453-.057-.935-.17-1.445a7.874 7.874 0 0 1-.17-1.53c0-.34.057-.708.17-1.105a4.04 4.04 0 0 0 .17-1.105c0-.453-.085-.878-.255-1.275a5.59 5.59 0 0 1-.17-1.36zM84.46 6.545a1.687 1.687 0 0 0-.765-.17c-.397 0-.822.113-1.275.34h1.36c.113 0 .34-.057.68-.17zm-4.845 1.7h.255c.113 0 .227.028.34.085h.425c.17 0 .283-.085.34-.255-.34-.113-.595-.17-.765-.17-.227 0-.425.113-.595.34zm3.74 1.36c-.113-.113-.283-.17-.51-.17-.283 0-.425.085-.425.255.113.113.283.17.51.17.283 0 .425-.085.425-.255zm-1.785-1.53.34.17c.17.057.34.085.51.085.227 0 .368-.085.425-.255h-.425a1.605 1.605 0 0 0-.51-.085c-.17 0-.283.028-.34.085zm2.89-3.23h-.51c-.283 0-.482.057-.595.17.113.113.312.17.595.17.34 0 .51-.113.51-.34zm-5.695.34h1.02c.113 0 .227-.057.34-.17-.34-.113-.595-.17-.765-.17-.34 0-.538.113-.595.34zm5.44 2.72c-.057.057-.17.085-.34.085h-.425c-.227 0-.34.028-.34.085.113 0 .227.028.34.085.17.057.312.085.425.085.17 0 .283-.113.34-.34zM79.615 3.4c-.453 0-.737.085-.85.255h.595c.17 0 .255-.085.255-.255zM110.738 41.14c.85-1.19 1.587-2.663 2.21-4.42.057-.113.057-.255 0-.425 0-.227.029-.397.085-.51.114-.17.227-.283.34-.34.114-.113.17-.227.17-.34.114-.963.227-1.813.34-2.55.114-.737.397-1.587.85-2.55.17-.397.312-.793.425-1.19a5.86 5.86 0 0 1 .425-1.19c.17-.737.312-1.417.425-2.04.114-.623.482-1.105 1.105-1.445 0-.623.17-1.19.51-1.7.34-.51.567-1.077.68-1.7.114-.283.114-.538 0-.765a2.171 2.171 0 0 1 0-.85l.34-1.02c.17-.34.284-.708.34-1.105.114-.227.17-.397.17-.51 0-.17.029-.368.085-.595a.574.574 0 0 0 .17-.425c0-.227.057-.397.17-.51.114-.34.227-.652.34-.935.17-.283.34-.595.51-.935.114-.34.17-.68.17-1.02.057-.397.227-.737.51-1.02.114-.85.255-1.672.425-2.465.227-.85.595-1.53 1.105-2.04-.113-.283-.141-.538-.085-.765.114-.227.199-.482.255-.765.114-.453.199-.85.255-1.19a3.02 3.02 0 0 1 .595-1.105c.34-.51.794-1.02 1.36-1.53.624-.567 1.275-.907 1.955-1.02.34 0 .68.057 1.02.17.34.113.737.17 1.19.17.624 0 1.304-.057 2.04-.17.737-.113 1.445-.17 2.125-.17h.34c1.134.17 1.955.567 2.465 1.19.51.623.935 1.388 1.275 2.295.227.623.369 1.275.425 1.955.114.623.312 1.218.595 1.785.227.453.454.85.68 1.19.227.34.454.708.68 1.105-.113.793-.028 1.502.255 2.125.34.567.624 1.105.85 1.615.114.283.17.595.17.935l.17.85.34.85.34.68v1.785c.397 1.02.794 1.955 1.19 2.805.114.283.284.538.51.765.227.17.369.397.425.68.114.34.17.68.17 1.02 0 .34.029.68.085 1.02.17.51.369 1.02.595 1.53l.68 1.53c.284.85.567 1.672.85 2.465.34.793.737 1.587 1.19 2.38 0 1.247.142 2.352.425 3.315.057.283.199.538.425.765.227.17.397.368.51.595.17.283.255.567.255.85 0 .283.142.567.425.85-.113.51-.056.963.17 1.36.284.34.454.737.51 1.19.114.283.114.538 0 .765a1.758 1.758 0 0 0 0 .765c.114.34.255.652.425.935.227.283.425.595.595.935.227.283.369.595.425.935.114.34.114.737 0 1.19-.226.113-.368.255-.425.425-.056.17-.226.312-.51.425-.51.17-1.02.283-1.53.34-.51.057-1.048.085-1.615.085-.68 0-1.388-.028-2.125-.085a26.684 26.684 0 0 0-2.21-.085h-.765c-.17.057-.311.085-.425.085-.226 0-.368-.028-.425-.085-.17-.057-.34-.255-.51-.595-.17-.283-.34-.595-.51-.935l-.34-1.19a8.658 8.658 0 0 0-.34-1.105 3.71 3.71 0 0 0-.34-.68 8.698 8.698 0 0 1-.17-.595 1.513 1.513 0 0 1-.17-.68 2.26 2.26 0 0 0-.17-.85 2.096 2.096 0 0 0-.255-.51 2.096 2.096 0 0 0-.255-.51 17.563 17.563 0 0 0-.85-1.785c-.226-.567-.651-.963-1.275-1.19h-.51c-.68 0-1.331.028-1.955.085-.566.057-1.161.085-1.785.085h-.935a2.98 2.98 0 0 1-.935-.17.757.757 0 0 1-.34-.085.576.576 0 0 0-.425-.17 4.33 4.33 0 0 0-.85.085 4.314 4.314 0 0 1-.85.085c-.283 0-.481-.028-.595-.085a.945.945 0 0 0-.425-.085c-.113 0-.226.057-.34.17-.056.057-.17.085-.34.085h-1.19c-.226 0-.453.028-.68.085-.17.057-.368.085-.595.085h-.85c-.566 0-1.02.142-1.36.425-.17.34-.311.652-.425.935-.113.283-.311.595-.595.935-.34.623-.623 1.303-.85 2.04-.17.737-.368 1.502-.595 2.295a16.378 16.378 0 0 1-.425 1.785c-.113.51-.34.963-.68 1.36-.396.453-1.048.793-1.955 1.02a8.545 8.545 0 0 1-2.72.425 7.762 7.762 0 0 1-2.295-.34c-.68-.227-1.161-.595-1.445-1.105-.226-1.247-.141-2.352.255-3.315a9.538 9.538 0 0 0 .85-3.145zm13.94-12.41c.51.34 1.02.51 1.53.51.284 0 .567-.028.85-.085.34-.057.652-.142.935-.255.454-.227.85-.34 1.19-.34.227 0 .425.057.595.17.17.113.397.17.68.17.227 0 .425-.028.595-.085.227-.057.482-.085.765-.085.284 0 .539.057.765.17.284.057.482.085.595.085.624-.113 1.077-.482 1.36-1.105a68.753 68.753 0 0 1-1.02-1.7c-.396-.68-.651-1.303-.765-1.87v-.68c-.056-.113-.113-.17-.17-.17a42.547 42.547 0 0 0-.255-.255c-.17-.34-.226-.737-.17-1.19.057-.51.029-.963-.085-1.36a2.656 2.656 0 0 0-.34-.85 2.105 2.105 0 0 1-.085-1.02l-.765-1.02c-.17-.623-.311-1.19-.425-1.7-.113-.567-.396-.992-.85-1.275 0-.057-.085-.085-.255-.085-.226.227-.368.51-.425.85v1.02a23.66 23.66 0 0 0-1.7 3.145 40.572 40.572 0 0 0-1.19 3.4l-.34.51c-.056.17-.141.34-.255.51a4.376 4.376 0 0 0-.085.85c0 .283-.056.567-.17.85a.816.816 0 0 1-.34.425 2.846 2.846 0 0 0-.34.425c-.113.453-.141.85-.085 1.19.057.34.142.623.255.85zm6.29-23.885h-2.21c-.85 0-1.388.113-1.615.34h2.465c.624 0 1.077-.113 1.36-.34zm-5.865 3.485c.17-.113.454-.17.85-.17h1.445c.227-.057.425-.142.595-.255h-.68a3.152 3.152 0 0 0-.765-.085c-.34 0-.651.028-.935.085a.764.764 0 0 0-.51.425zm3.825-4.845c.34 0 .737.057 1.19.17h.595l.085-.085c.057 0 .114-.057.17-.17-.113 0-.283-.028-.51-.085a1.882 1.882 0 0 0-.595-.085c-.17 0-.396.028-.68.085-.226.057-.311.113-.255.17zm5.27 1.7c.057.113.17.17.34.17.34 0 .51-.113.51-.34 0-.113-.113-.17-.34-.17-.34 0-.51.113-.51.34zm-.51-.17a2.495 2.495 0 0 0-.935-.17h-.935c0 .113-.056.17-.17.17-.056 0-.085.057-.085.17.227-.113.397-.17.51-.17.17 0 .34.028.51.085a2.5 2.5 0 0 0 .595.085c.227 0 .397-.057.51-.17zm-5.525 5.95h-.68c0 .283.114.425.34.425.227 0 .34-.142.34-.425zm-1.87-1.36h-.34a.751.751 0 0 0-.34-.085c-.17 0-.255.057-.255.17.114.113.284.17.51.17.284 0 .425-.085.425-.255zm-1.53 3.145c.114.113.312.17.595.17.17 0 .255-.057.255-.17-.113-.113-.311-.17-.595-.17-.17 0-.255.057-.255.17zm4.42-6.035c0-.17-.113-.255-.34-.255-.396 0-.68.085-.85.255h1.19zm-1.87 0v-.34h-1.02v.34h1.02zm-1.53-1.87c-.226 0-.396.028-.51.085-.056 0-.085.142-.085.425h.425c.114-.057.17-.227.17-.51zm7.225-1.19h1.02c0-.17-.113-.255-.34-.255-.283 0-.51.085-.68.255zm.34 7.395c-.056.057-.141.085-.255.085h-.255c-.113 0-.17.028-.17.085.114.113.227.17.34.17.227 0 .34-.113.34-.34zm-5.355-7.395h.51V3.4h-.51v.255zM152.803 22.78c0-.397.114-.765.34-1.105.284-.34.482-.737.595-1.19a7.5 7.5 0 0 0 .255-2.55c0-.907.057-1.757.17-2.55.114-.453.255-.822.425-1.105.17-.34.227-.708.17-1.105.284-.113.425-.312.425-.595.057-.283.142-.567.255-.85.114-.283.312-.51.595-.68.284-.227.51-.482.68-.765.284-.567.51-1.105.68-1.615.17-.567.454-1.133.85-1.7.34-.227.652-.425.935-.595.34-.227.595-.567.765-1.02.34-.34.765-.538 1.275-.595a8.777 8.777 0 0 1 1.87-1.7c.737-.51 1.587-.992 2.55-1.445 1.247-.623 2.437-1.02 3.57-1.19 1.134-.17 2.38-.255 3.74-.255.397 0 .652-.057.765-.17.17.113.34.17.51.17h2.125c.114 0 .227.057.34.17.114.113.227.17.34.17l1.02.255c.227 0 .51.057.85.17.51.113.935.227 1.275.34.397.113.822.312 1.275.595a9.593 9.593 0 0 1 1.7 1.105 9.608 9.608 0 0 0 1.955 1.105c.34.397.68.737 1.02 1.02.34.227.567.652.68 1.275a7.167 7.167 0 0 1 1.36 1.87c.454.623.85 1.275 1.19 1.955.397.68.709 1.587.935 2.72v1.02c0 .283.085.708.255 1.275.17.567.199 1.02.085 1.36-.113.793-.481 1.303-1.105 1.53-.623.227-1.416.397-2.38.51a74.44 74.44 0 0 0-1.275.17 7.834 7.834 0 0 1-1.105.085c-.453 0-.793-.028-1.02-.085-.283-.113-.623-.142-1.02-.085-.396 0-.736-.142-1.02-.425a1.904 1.904 0 0 1-.255-.595v-.765c-.51-.793-.821-1.587-.935-2.38a5.34 5.34 0 0 0-.85-2.295c-.056-.113-.113-.17-.17-.17-.056 0-.141-.057-.255-.17-.113-.113-.141-.198-.085-.255.057-.057.029-.142-.085-.255a1.802 1.802 0 0 0-.765-.68 2.193 2.193 0 0 1-.765-.85c-.623-.113-1.105-.283-1.445-.51-.34-.283-.765-.482-1.275-.595a3.934 3.934 0 0 0-.765-.085 3.152 3.152 0 0 0-.765-.085c-.906 0-1.785.113-2.635.34-.793.227-1.416.482-1.87.765-.623.51-1.133 1.162-1.53 1.955a28.844 28.844 0 0 0-1.105 2.295 7.448 7.448 0 0 0-.34 1.615c-.056.567-.17 1.247-.34 2.04a6.132 6.132 0 0 0-.255.765 5.82 5.82 0 0 1-.255.765 1.478 1.478 0 0 0-.085.85c.057.283.029.567-.085.85a9.758 9.758 0 0 1-.34.765 3.194 3.194 0 0 0-.085.765 21.619 21.619 0 0 0 0 3.825c.114 1.303.312 2.522.595 3.655.114.283.17.567.17.85 0 .283.057.567.17.85.114.34.17.652.17.935 0 .227.057.482.17.765.17.51.397.935.68 1.275.114.283.199.538.255.765.057.17.142.368.255.595.227.283.482.595.765.935.284.34.539.68.765 1.02.114.113.17.255.17.425a.56.56 0 0 0 .255.255c.114.057.425.227.935.51.567.283.935.482 1.105.595.51.17.992.227 1.445.17.51-.057.935.057 1.275.34.397-.113.765-.17 1.105-.17.34 0 .68-.057 1.02-.17a430.816 430.816 0 0 0 1.36-.68c.284-.17.539-.283.765-.34.227-.113.425-.227.595-.34.34-.283.624-.567.85-.85.227-.34.51-.623.85-.85l1.02-2.04c.34-.737.539-1.615.595-2.635.284-.51.652-.765 1.105-.765.51 0 1.162-.085 1.955-.255.17 0 .312-.028.425-.085.114-.113.312-.17.595-.17h.935c.34 0 .652.057.935.17a5.297 5.297 0 0 1 2.125.765c.624.34 1.077.85 1.36 1.53.114.453.114 1.048 0 1.785-.056.68-.226 1.162-.51 1.445-.283.397-.623.992-1.02 1.785-.34.737-.68 1.303-1.02 1.7-.17.623-.51 1.303-1.02 2.04-.453.68-1.02 1.36-1.7 2.04a12.102 12.102 0 0 1-2.04 1.785c-.68.51-1.303.907-1.87 1.19 0 .057-.113.085-.34.085-.17 0-.283.028-.34.085-.056.113-.17.255-.34.425a.945.945 0 0 1-.425.085h-.255c-.17.113-.396.283-.68.51-.283.227-.51.397-.68.51l-.51.085c-.34.057-.708.113-1.105.17l-1.19.17c-.34.057-.538.085-.595.085-.226 0-.396-.028-.51-.085-.85.34-1.671.51-2.465.51-.453 0-.878-.057-1.275-.17a12.76 12.76 0 0 1-1.275-.255 4.877 4.877 0 0 1-.85-.255 6.11 6.11 0 0 1-.765-.255h-.51c-.17.057-.34.085-.51.085-.226 0-.396-.028-.51-.085-.113 0-.17-.057-.17-.17-.056-.057-.085-.113-.085-.17h-.595a2.523 2.523 0 0 1-1.19-.68c-.34-.34-.708-.567-1.105-.68-.17-.113-.396-.17-.68-.17a99.375 99.375 0 0 0-.255-.255 2.482 2.482 0 0 0-.34-.255 12.33 12.33 0 0 0-.935-.425c-.283-.17-.566-.425-.85-.765a1.288 1.288 0 0 0-.34-.68 1.065 1.065 0 0 0-.425-.255 1 1 0 0 1-.255-.17c-.17-.113-.283-.227-.34-.34 0-.17-.056-.283-.17-.34l-1.19-1.19a4.546 4.546 0 0 1-.85-1.19 1.909 1.909 0 0 1-.255-.68 6.558 6.558 0 0 0-.255-1.02 16.83 16.83 0 0 0-.425-.68 1.909 1.909 0 0 1-.255-.68c0-.057-.056-.085-.17-.085-.113 0-.17-.057-.17-.17a.763.763 0 0 1-.085-.34c.057-.17.057-.368 0-.595a4.416 4.416 0 0 0-.51-.765 3.422 3.422 0 0 1-.51-.85 4.497 4.497 0 0 1-.255-1.02c0-.453-.028-.85-.085-1.19 0-.113-.056-.198-.17-.255-.113-.057-.17-.142-.17-.255a7.872 7.872 0 0 1-.17-1.7c.057-.623.029-1.332-.085-2.125a6.13 6.13 0 0 0-.255-1.19 3.777 3.777 0 0 1-.17-1.19c0-.17.029-.368.085-.595.057-.227.085-.482.085-.765 0-.34-.085-.68-.255-1.02-.113-.34-.17-.68-.17-1.02zm11.475-16.405c.057.227.369.34.935.34.397 0 .794-.028 1.19-.085.397-.057.68-.085.85-.085.17 0 .34.057.51.17.227.057.397.085.51.085.17 0 .255-.142.255-.425-.226.113-.425.17-.595.17a2.8 2.8 0 0 1-.68-.085c-.17-.113-.396-.17-.68-.17-.226 0-.425.057-.595.17a.751.751 0 0 1-.34.085 2.8 2.8 0 0 1-.68-.085c-.17-.113-.311-.17-.425-.17-.056 0-.113.028-.17.085h-.085zm2.89-1.19c.227.113.454.17.68.17.737 0 1.219-.17 1.445-.51a2.208 2.208 0 0 0-.68-.085c-.566 0-.935.085-1.105.255h-.425c-.226 0-.198.057.085.17zm4.165-1.7a2.5 2.5 0 0 1-.595-.085 1.683 1.683 0 0 0-.765-.17c-.056 0-.311.057-.765.17-.453.057-.68.142-.68.255.114-.057.284-.085.51-.085.284 0 .51.028.68.085.227.057.482.085.765.085.34 0 .624-.085.85-.255zm2.805 1.36c.057.227.227.34.51.34.227 0 .454-.028.68-.085l.51-.255h-1.7zm-11.135 3.4c.17-.057.369-.085.595-.085a2.5 2.5 0 0 1 .595-.085h.255c0-.057-.17-.113-.51-.17h-.34a2.8 2.8 0 0 0-.68.085c-.17 0-.283.085-.34.255h.425zm18.955 1.19c-.623 0-1.02.085-1.19.255.227.113.454.17.68.17.284 0 .454-.142.51-.425zm-5.865-5.78c0-.17-.141-.255-.425-.255-.453 0-.765.085-.935.255h1.36zm1.275 1.36c-.226-.113-.396-.17-.51-.17-.34 0-.566.113-.68.34h.85c.114 0 .227-.057.34-.17zm-16.405 6.035h-.34c-.17 0-.368.028-.595.085-.226 0-.368.085-.425.255.17-.113.397-.142.68-.085.284 0 .51-.085.68-.255zm12.495-7.565c.114 0 .227.057.34.17a.758.758 0 0 0 .34.085c.17 0 .255-.085.255-.255-.113-.113-.311-.17-.595-.17-.226 0-.34.057-.34.17zm-2.21-1.36c.057.113.312.17.765.17 0-.227-.141-.34-.425-.34-.226 0-.34.057-.34.17zm-10.71 5.78v.34h.935v-.34h-.935zm-2.465 12.41h-.425a1.603 1.603 0 0 0-.51-.085c-.17 0-.283.028-.34.085h.255a.75.75 0 0 1 .34.085 1.4 1.4 0 0 0 .425.085c.057 0 .142-.057.255-.17zm23.8-9.265c.114 0 .199.028.255.085a.757.757 0 0 0 .34.085c.114 0 .199-.085.255-.255H182.043c-.113 0-.17.028-.17.085zM207.45 22.015c.454-.113.794-.312 1.02-.595.284-.283.51-.623.68-1.02l.51-1.19c.17-.453.369-.822.595-1.105.454-.453.85-.963 1.19-1.53.397-.623.822-1.247 1.275-1.87.114-.113.198-.227.255-.34.113-.113.227-.255.34-.425.114-.113.17-.227.17-.34l.17-.34c.17-.17.397-.312.68-.425.284-.113.51-.255.68-.425a.578.578 0 0 0 .17-.425.82.82 0 0 1 .34-.425c.17-.283.34-.482.51-.595.17-.113.34-.397.51-.85a.56.56 0 0 0 .255-.255.56.56 0 0 1 .255-.255c.284-.51.51-.935.68-1.275.227-.397.595-.822 1.105-1.275.057-.057.113-.085.17-.085.057 0 .114-.028.17-.085.227-.453.368-.793.425-1.02.113-.17.227-.283.34-.34a1.83 1.83 0 0 0 .425-.34l.51-.85.51-.85c.113-.113.227-.198.34-.255.113-.113.227-.255.34-.425a.578.578 0 0 0 .17-.425.827.827 0 0 1 .34-.51c.567-.85 1.445-1.275 2.635-1.275h.51c.227 0 .454.028.68.085h1.02c.567 0 .964.085 1.19.255.34-.113.652-.227.935-.34.34-.113.652-.17.935-.17.113 0 .17.028.17.085h.255c.454.113.85.425 1.19.935.397.453.595.822.595 1.105 0 .51-.141.935-.425 1.275-.226.453-.51.935-.85 1.445-.34.453-.736.793-1.19 1.02a15.125 15.125 0 0 1-1.02 1.87 32.444 32.444 0 0 1-1.275 1.7c-.51.51-.991 1.077-1.445 1.7-.396.453-.736.85-1.02 1.19-.226.283-.51.737-.85 1.36-.226.453-.425.793-.595 1.02-.283.397-.538.737-.765 1.02-.227.283-.34.567-.34.85 0 .453.113.822.34 1.105.284.227.539.567.765 1.02.114.17.17.397.17.68.057.283.142.567.255.85.113.17.227.368.34.595.113.17.227.368.34.595.227.453.369.963.425 1.53.114.567.34.992.68 1.275.113.85.312 1.7.595 2.55.284.793.595 1.53.935 2.21v.425c0 .113.17.397.51.85.284.453.51.963.68 1.53.17.51.397 1.02.68 1.53.17.34.34.623.51.85.17.227.34.567.51 1.02.114.113.17.255.17.425.057.113.142.255.255.425.113.34.199.68.255 1.02.057.34.142.652.255.935.227.453.51.907.85 1.36.34.397.623.85.85 1.36-.113.793-.085 1.445.085 1.955.17.453.369.992.595 1.615.114.397.255.793.425 1.19.17.397.198.765.085 1.105-.113.623-.595 1.077-1.445 1.36-.85.34-1.756.51-2.72.51a4.32 4.32 0 0 1-1.19-.17 3.21 3.21 0 0 0-1.02-.17c-.34 0-.708.057-1.105.17-.34.113-.708.17-1.105.17h-.17c-.17 0-.396-.085-.68-.255-.283-.17-.482-.283-.595-.34-.17-.17-.453-.652-.85-1.445-.283-.34-.51-.793-.68-1.36a4.55 4.55 0 0 1-.255-.935 4.487 4.487 0 0 0-.255-.935c-.283-.453-.538-1.077-.765-1.87-.226-.793-.481-1.445-.765-1.955a9.684 9.684 0 0 1-.765-1.53 11.77 11.77 0 0 0-.765-1.7v-.935a50.16 50.16 0 0 0-1.02-1.785 55.82 55.82 0 0 0-.935-1.785c-.17-.34-.368-.793-.595-1.36a80.73 80.73 0 0 1-.595-1.53 24.578 24.578 0 0 1-.595-1.275c-.17-.453-.425-.737-.765-.85-.283 0-.538.085-.765.255-.17.17-.34.397-.51.68-.113.227-.227.482-.34.765a1.976 1.976 0 0 1-.34.51c-.113.17-.255.34-.425.51a2.77 2.77 0 0 0-.425.34c-.227.283-.453.595-.68.935l-.68 1.02c-.283.453-.481.765-.595.935-.056.17-.255.425-.595.765a1.35 1.35 0 0 0-.34.255 1.074 1.074 0 0 0-.255.425c-.396.453-.68.878-.85 1.275-.113.34-.311.907-.595 1.7a4.55 4.55 0 0 1-.255.935 2.48 2.48 0 0 0-.085.595c0 .283.028.567.085.85.113.227.17.538.17.935v2.89c0 .453.028.935.085 1.445.113.453.113.822 0 1.105 0 .283-.085.595-.255.935-.17.34-.312.538-.425.595-.34.453-.935.793-1.785 1.02-.793.283-1.445.425-1.955.425a7.085 7.085 0 0 1-1.87-.255 7.08 7.08 0 0 0-1.87-.255c-.397 0-.68.028-.85.085-.51-.17-.822-.51-.935-1.02a44.989 44.989 0 0 1-.34-1.7 10.246 10.246 0 0 1-.085-1.275c0-.397-.056-.765-.17-1.105a2.988 2.988 0 0 1-.17-.935c0-.34.142-.623.425-.85-.283-.34-.34-.708-.17-1.105.227-.453.283-.963.17-1.53 0-.113-.056-.227-.17-.34a1.42 1.42 0 0 1-.085-.425c0-1.133.17-2.125.51-2.975-.17-.85-.17-1.757 0-2.72a9.26 9.26 0 0 0 .17-3.06 3 3 0 0 0-.255-1.19 3.202 3.202 0 0 1-.255-1.275c0-.17.028-.34.085-.51.113-.17.17-.34.17-.51 0-.283-.028-.538-.085-.765a3.194 3.194 0 0 1-.085-.765c0-.283.029-.567.085-.85a4.3 4.3 0 0 0 .085-.85c0-.567-.057-1.105-.17-1.615-.057-.51-.085-1.02-.085-1.53 0-.793.085-1.558.255-2.295.17-.737.255-1.502.255-2.295 0-.397-.085-.765-.255-1.105a6.28 6.28 0 0 1-.255-1.19v-.595c.057-.113.085-.312.085-.595 0-.34-.085-.652-.255-.935-.113-.34-.113-.793 0-1.36v-.51c0-.283.057-.51.17-.68a3.45 3.45 0 0 1 .17-.425c.114-.17.17-.368.17-.595a2.26 2.26 0 0 0-.17-.85 3.777 3.777 0 0 1-.17-1.19c-.17-1.19-.17-2.21 0-3.06.227-.85.85-1.388 1.87-1.615.113-.057.34-.085.68-.085.283 0 .567.028.85.085h.935c.284-.057.567-.085.85-.085h.935c.793 0 1.53.085 2.21.255.737.17 1.304.482 1.7.935.284.34.482.878.595 1.615.17.737.057 1.332-.34 1.785.114.51.114 1.02 0 1.53a5.526 5.526 0 0 0 0 1.36c0 .227.028.482.085.765.113.227.17.453.17.68.114.963.085 1.983-.085 3.06a20.145 20.145 0 0 0-.085 3.23c0 .453.057.878.17 1.275.114.34.17.68.17 1.02a7.798 7.798 0 0 1-.255.935l-.34 1.02c-.057.34-.085.708-.085 1.105 0 .34.113.68.34 1.02zm-8.075-18.36h.85c.283-.057.51-.142.68-.255a1.506 1.506 0 0 0-.68-.17c-.453 0-.736.142-.85.425zm1.87-.17c.34.17.765.255 1.275.255.51 0 .879-.085 1.105-.255a1.24 1.24 0 0 0-.765-.255c-.283 0-.566.057-.85.17a3.934 3.934 0 0 1-.765.085zm2.55.17a1.4 1.4 0 0 1 .425.085c.227.057.397.085.51.085.284 0 .425-.113.425-.34-.056-.057-.311-.085-.765-.085-.397 0-.595.085-.595.255zm20.145 0c.114-.057.255-.057.425 0a1.4 1.4 0 0 0 .425.085c.17 0 .227-.113.17-.34-.396 0-.736.085-1.02.255zm-24.82 1.53h.68c.227-.057.453-.17.68-.34-.057-.057-.198-.085-.425-.085-.453 0-.765.142-.935.425zm3.995-.17c-.17-.17-.425-.255-.765-.255-.567 0-.935.142-1.105.425.17-.057.397-.085.68-.085.34 0 .652.057.935.17.34.113.652.17.935.17.284 0 .51-.142.68-.425a1.509 1.509 0 0 0-.68-.17c-.113 0-.34.057-.68.17zm20.315.17h.51c.227 0 .34-.113.34-.34-.34 0-.623.113-.85.34zm-24.055 1.36c.284 0 .595.028.935.085.397.057.794.085 1.19.085.567 0 .935-.113 1.105-.34-.17.057-.396.085-.68.085-.283 0-.595-.028-.935-.085a4.317 4.317 0 0 0-.85-.085c-.34 0-.595.085-.765.255zm5.525 0c-.17-.113-.538-.17-1.105-.17-.057.34.142.51.595.51.34 0 .51-.113.51-.34zm16.83.17c.624 0 1.02-.113 1.19-.34h-.425c-.453 0-.708.113-.765.34zm2.04 0c.113.057.284.085.51.085.284 0 .51-.085.68-.255-.113-.113-.311-.17-.595-.17-.34 0-.538.113-.595.34zm2.72 0c.057-.227-.028-.34-.255-.34h-.51c-.056.227 0 .34.17.34h.595zm-23.12 1.53h.935c0-.283-.113-.425-.34-.425-.283 0-.481.142-.595.425zm21.08 0c.113-.057.284-.085.51-.085.17 0 .34.028.51.085h.51c.227 0 .369-.057.425-.17a2.8 2.8 0 0 1-.68-.085 2.788 2.788 0 0 0-.68-.085c-.34 0-.538.113-.595.34zm-1.105 0c.057-.227-.141-.34-.595-.34-.34 0-.51.057-.51.17.227.113.595.17 1.105.17zm-23.97 1.36c.114 0 .198.028.255.085a.754.754 0 0 0 .34.085c.114 0 .198-.057.255-.17l-.34-.17c-.057-.113-.142-.17-.255-.17-.113 0-.198.113-.255.34zm1.7.085h.51v-.255h-.51v.255zm18.785 0c.397 0 .68-.085.85-.255h-.34c-.34 0-.51.085-.51.255zm2.805-.255c-.283 0-.623.028-1.02.085-.396.057-.567.113-.51.17h1.36c.284 0 .482-.028.595-.085-.283 0-.425-.057-.425-.17zm2.21 0c-.056.057-.198.085-.425.085h-.595c-.227 0-.368.028-.425.085.114 0 .199.028.255.085h.34c.34 0 .624-.085.85-.255zm-5.95 1.53c0 .283.142.425.425.425.34 0 .51-.113.51-.34a1.881 1.881 0 0 0-.595-.085h-.34zm-18.36.255h.51c.17 0 .227-.085.17-.255-.453 0-.68.085-.68.255zm2.72.17c.057-.113 0-.198-.17-.255a.576.576 0 0 0-.425-.17c-.113 0-.198.028-.255.085.114.113.255.17.425.17.17 0 .312.057.425.17zm20.145-.34h-.255c-.057-.057-.142-.085-.255-.085h-.255c-.113.283.029.425.425.425.227 0 .34-.113.34-.34zm-21.335 7.905c.284 0 .453-.028.51-.085.113-.057.227-.142.34-.255h-.51c-.226 0-.34.113-.34.34zm11.475 2.89h.425c.227 0 .312-.085.255-.255-.34 0-.567.085-.68.255zm4.845-.17c-.057.057-.141.085-.255.085h-.255c-.113 0-.17.028-.17.085 0 .113.113.17.34.17.227 0 .34-.113.34-.34zm4.25 6.205h.34c.227 0 .34-.057.34-.17l-.085-.085h-.17c-.283 0-.425.085-.425.255zM24.399 102c.226.113.453.255.68.425l.68.34c1.076.113 2.04.368 2.89.765.85.397 1.671.822 2.465 1.275.283.227.566.397.85.51.34.113.651.283.935.51.283.17.566.425.85.765.34.34.623.652.85.935.17.283.34.623.51 1.02.17.34.396.708.68 1.105.283.453.595.85.935 1.19.34.283.51.567.51.85 0 .51-.142.907-.425 1.19-.227.283-.51.567-.85.85-.284.34-.595.623-.935.85-.284.17-.595.34-.935.51h-.255c-.284 0-.51-.028-.68-.085a1.595 1.595 0 0 0-.51-.085 5.279 5.279 0 0 0-1.785.68c-.51.34-1.02.51-1.53.51h-.255c-.51 0-.907-.198-1.19-.595a12.36 12.36 0 0 0-.85-1.275 5.159 5.159 0 0 0-1.02-1.19 7.23 7.23 0 0 0-.935-.935c-.227-.057-.51-.113-.85-.17a17.004 17.004 0 0 0-.935-.34 5.912 5.912 0 0 1-.85-.425 4.44 4.44 0 0 0-.68-.425c-.227 0-.454.028-.68.085-.17.057-.397.085-.68.085-.227 0-.425-.028-.595-.085a2.201 2.201 0 0 0-.68-.085c-.17 0-.34.057-.51.17-.17.057-.34.085-.51.085h-.765a2.305 2.305 0 0 0-.51-.085c-.794.113-1.445.425-1.955.935-.454.51-.907 1.077-1.36 1.7.056.453 0 .878-.17 1.275-.17.34-.199.708-.085 1.105.113.623.425 1.162.935 1.615.566.453 1.076.85 1.53 1.19.113.057.283.085.51.085h.51c.226 0 .425.028.595.085.453.453.991.737 1.615.85.68.057 1.388.227 2.125.51l.51.255c.17.057.368.142.595.255a.942.942 0 0 0 .425.085h.51c.17-.057.368-.085.595-.085l1.36.34c.51.113 1.048.17 1.615.17h.51c.51.51 1.133.793 1.87.85a5.573 5.573 0 0 0 2.21 1.36c.85.283 1.671.708 2.465 1.275.34.283.68.623 1.02 1.02.34.34.736.68 1.19 1.02.34.227.566.397.68.51.113.057.17.17.17.34.056.113.141.227.255.34.226.17.396.34.51.51.17.17.311.34.425.51.113.283.17.567.17.85.056.283.141.567.255.85.113.227.198.425.255.595.113.113.198.283.255.51.17.453.283.992.34 1.615a8.25 8.25 0 0 1 .17 1.615c0 .737-.142 1.502-.425 2.295-.227.737-.199 1.502.085 2.295-.17.397-.284.822-.34 1.275-.057.397-.255.68-.595.85-.114.623-.34 1.077-.68 1.36-.34.283-.567.737-.68 1.36a6.485 6.485 0 0 0-2.38 1.87 8.08 8.08 0 0 1-2.21 1.955c-.454.283-.907.538-1.36.765-.454.227-.907.425-1.36.595-.284.113-.539.227-.765.34a3.062 3.062 0 0 1-.765.255c-.284.057-.539.17-.765.34-.17.17-.397.283-.68.34-.284.113-.595.17-.935.17h-.935c-.34.057-.652.113-.935.17a4.3 4.3 0 0 1-.85.085c-.34 0-.709-.028-1.105-.085a7.797 7.797 0 0 0-1.105-.085 2.28 2.28 0 0 0-.85.17c-.227.113-.51.17-.85.17-.284 0-.595-.028-.935-.085a7.99 7.99 0 0 1-.935-.255 45.955 45.955 0 0 1-3.74-.34c-1.304-.113-2.494-.453-3.57-1.02l-1.02-.34a2.68 2.68 0 0 1-.85-.34c-.284-.113-.482-.227-.595-.34-.057-.113-.199-.227-.425-.34a1.904 1.904 0 0 0-.595-.255 3.298 3.298 0 0 1-.425-.17c-.397-.283-.879-.708-1.445-1.275a28.005 28.005 0 0 1-1.7-1.87c-.51-.737-.992-1.445-1.445-2.125-.397-.68-.68-1.218-.85-1.615 0-.907.085-1.672.255-2.295.17-.68.68-1.19 1.53-1.53.283-.113.595-.17.935-.17a9.026 9.026 0 0 0 1.19-.255c.113 0 .396-.113.85-.34.34-.113.736-.227 1.19-.34.453-.113.906-.17 1.36-.17.68 0 1.218.17 1.615.51a3.83 3.83 0 0 1 1.02 1.105c.34.453.651.935.935 1.445.34.51.765.963 1.275 1.36.34.227.963.538 1.87.935.963.34 1.671.51 2.125.51.113.113.283.227.51.34l.85.34c.283.057.623.085 1.02.085h1.19c.17 0 .368-.028.595-.085.283-.113.538-.17.765-.17.226 0 .425.028.595.085h.595c.17 0 .311-.028.425-.085.113 0 .34-.057.68-.17.34-.17.708-.34 1.105-.51a8.52 8.52 0 0 0 1.02-.51c.34-.17.538-.283.595-.34l.425-.425c.17-.17.283-.312.34-.425.056-.113.056-.283 0-.51 0-.283.028-.567.085-.85l.34-1.02a2.431 2.431 0 0 0 0-1.275c-.114-.283-.397-.68-.85-1.19a4.08 4.08 0 0 1-.595-.51c-.227-.283-.397-.453-.51-.51a3.688 3.688 0 0 0-1.36-.595c-.51-.113-.935-.397-1.275-.85a170.83 170.83 0 0 0-3.57-.85c-1.247-.283-2.295-.737-3.145-1.36-.17 0-.567-.057-1.19-.17a41.94 41.94 0 0 0-1.87-.51c-.68-.17-1.332-.34-1.955-.51-.567-.17-.964-.312-1.19-.425a1.348 1.348 0 0 1-.34-.255l-.34-.34c-.114-.113-.284-.17-.51-.17h-.425l-1.02-.85a13.96 13.96 0 0 0-.935-.85 6.345 6.345 0 0 0-.68-.595l-.765-.765c-.34-.397-.68-1.048-1.02-1.955a4.466 4.466 0 0 1-.425-.68c-.114-.283-.199-.51-.255-.68-.114-.283-.142-.51-.085-.68.056-.17.028-.397-.085-.68l-.34-.51-.17-.51a2.274 2.274 0 0 1-.17-.85c0-.34-.057-.708-.17-1.105-.114-.51-.227-.935-.34-1.275-.057-.34-.029-.765.085-1.275 0-.113.028-.17.085-.17.113 0 .17-.057.17-.17v-.085c-.057-.057-.085-.142-.085-.255.113-.68.255-1.303.425-1.87a7.44 7.44 0 0 1 .51-1.275c.226-.51.453-.992.68-1.445.226-.397.481-.765.765-1.105a3.69 3.69 0 0 0 .595-1.36 31.87 31.87 0 0 1 2.04-1.53 27.839 27.839 0 0 1 2.38-1.53c.056 0 .425-.113 1.105-.34a55.82 55.82 0 0 1 2.38-.85c.85-.34 1.643-.623 2.38-.85.736-.283 1.133-.425 1.19-.425h.17c.056-.057.141-.085.255-.085.283 0 .566.057.85.17.34.057.736.085 1.19.085h3.315c.283 0 .538.028.765.085.226.057.481.085.765.085h.255zm-.595 2.125H24.654c.17 0 .283-.028.34-.085-.34-.113-.595-.17-.765-.17-.17 0-.312.085-.425.255zm-6.46 1.53h.425c.226-.057.34-.142.34-.255-.51 0-.765.085-.765.255zm1.955-.17h-.51c-.057-.057-.114-.085-.17-.085-.057 0-.114.028-.17.085.113.113.311.17.595.17.17 0 .255-.057.255-.17zm.17.17c.056-.057.113-.085.17-.085.113 0 .198.028.255.085h.17c.17 0 .255-.057.255-.17-.057-.057-.227-.085-.51-.085-.227 0-.34.085-.34.255zm6.545 0h.68c.113 0 .17-.057.17-.17-.057-.057-.227-.085-.51-.085-.227 0-.34.085-.34.255zm-8.67 1.19c-.057-.113-.17-.17-.34-.17-.284 0-.482.113-.595.34.17.113.538.17 1.105.17h1.275a.512.512 0 0 0-.34-.34 1.595 1.595 0 0 0-.51-.085.75.75 0 0 0-.34.085h-.255zm-7.99.34a.75.75 0 0 1 .34.085h.34c.283 0 .425-.142.425-.425h-.34a.75.75 0 0 0-.34-.085c-.284 0-.425.142-.425.425zm10.115 0h.51c.226 0 .396-.057.51-.17h.595c.34-.057.368-.113.085-.17h-1.19c-.284 0-.454.113-.51.34zm-5.525 0c.113.057.34.085.68.085.396 0 .765-.085 1.105-.255-.227-.113-.539-.17-.935-.17-.17 0-.34.028-.51.085-.17.057-.284.142-.34.255zm9.095-.17c-.227-.113-.595-.17-1.105-.17 0 .34.17.51.51.51.34 0 .538-.113.595-.34zm1.785.17a.942.942 0 0 1 .425-.085c.17-.057.311-.085.425-.085l.255-.085c0-.057-.142-.085-.425-.085h-.34c-.17 0-.34.028-.51.085-.17 0-.255.085-.255.255h.425zm2.21 0h.68c.17 0 .255-.057.255-.17h-.34c-.057-.057-.142-.085-.255-.085-.227 0-.34.085-.34.255zm-16.405 1.36c-.057-.113-.199-.17-.425-.17-.227 0-.369.057-.425.17.17.113.481.17.935.17h1.19c-.057-.283-.227-.425-.51-.425-.114 0-.255.028-.425.085l-.34.17zm4.675.17c.17.17.34.255.51.255.17 0 .34-.028.51-.085.226-.113.481-.17.765-.17h.255c-.114-.283-.369-.425-.765-.425-.284 0-.539.057-.765.17-.227.057-.397.142-.51.255zm8.67-.17a.75.75 0 0 1 .34.085h.425c.226 0 .368-.085.425-.255-.057-.057-.17-.085-.34-.085-.454 0-.737.085-.85.255zm-9.35.17c.056-.227-.114-.34-.51-.34-.34 0-.51.057-.51.17.113 0 .226.057.34.17.17.057.311.085.425.085h.085c.056-.057.113-.085.17-.085zm5.865-.17c-.057-.113-.284-.17-.68-.17-.114.283 0 .425.34.425.226 0 .34-.085.34-.255zm1.7-.17h-.68c-.114.113-.142.198-.085.255a.75.75 0 0 0 .34.085c.34 0 .481-.113.425-.34zm4.675.34c.056-.227-.057-.34-.34-.34-.227 0-.34.057-.34.17.113.113.34.17.68.17zm2.04-.34h-1.615c0 .283.255.425.765.425.566 0 .85-.142.85-.425zm-21.165 1.53c-.284 0-.425.028-.425.085l.17.085h.425c.226-.057.396-.113.51-.17h-.68zm2.89.17c-.114 0-.199-.028-.255-.085-.057-.113-.199-.142-.425-.085-.17.227-.057.34.34.34.226 0 .34-.057.34-.17zm2.295-.17c-.057.057-.199.085-.425.085h-.51c-.284 0-.482.028-.595.085.113 0 .255.028.425.085.226.057.453.085.68.085.283 0 .425-.113.425-.34zm13.09.34h.51v-.34h-.51v.34zm5.015-.17c-.227-.113-.425-.17-.595-.17-.227 0-.51.057-.85.17l-.17-.085h-.255c-.227 0-.255.085-.085.255.113-.057.311-.085.595-.085.283 0 .538.028.765.085.283.057.538.085.765.085.396 0 .651-.142.765-.425h-.17a.942.942 0 0 0-.425.085.75.75 0 0 1-.34.085zm-3.315 1.615c.17 0 .34-.085.51-.255-.057-.057-.142-.085-.255-.085-.227 0-.312.113-.255.34zm-18.615 0c.113.113.255.17.425.17.34 0 .51-.142.51-.425h-.425c-.34 0-.51.085-.51.255zm2.465 0c.113-.17 0-.255-.34-.255s-.51.057-.51.17c.113.057.396.085.85.085zm17 0c.113.113.311.17.595.17.396 0 .68-.085.85-.255-.227-.113-.51-.17-.85-.17-.284 0-.482.085-.595.255zm-20.655 1.53c.113.057.368.085.765.085.566 0 1.02-.085 1.36-.255h-.595a2.778 2.778 0 0 0-.68-.085c-.454 0-.737.085-.85.255zm1.02 3.06c.113.113.198.17.255.17.226 0 .396-.113.51-.34l-.34-.17c-.17 0-.312.113-.425.34zm21.08 16.66c.056-.057.17-.085.34-.085h.34c.113 0 .17-.028.17-.085a.75.75 0 0 1-.34-.085c-.057-.057-.142-.085-.255-.085-.114 0-.199.113-.255.34zM69.174 128.35c.453-.283.708-.652.765-1.105.113-.453.255-.907.425-1.36a4.33 4.33 0 0 0 .255-1.53c0-.623.056-1.19.17-1.7.056-.283.141-.567.255-.85.17-.283.311-.567.425-.85.056-.283.17-.538.34-.765.17-.227.283-.482.34-.765.113-.283.17-.538.17-.765 0-.283.028-.567.085-.85.17-.34.368-.68.595-1.02.226-.34.453-.652.68-.935.17-1.19.538-2.153 1.105-2.89 0-1.133.141-2.125.425-2.975.34-.85.68-1.672 1.02-2.465 0-.51.056-1.105.17-1.785.113-.737.34-1.275.68-1.615a.75.75 0 0 1 .34-.085c.113 0 .198-.057.255-.17.056-.113.056-.17 0-.17 0-.057.028-.142.085-.255.51-.567 1.416-.822 2.72-.765a54.62 54.62 0 0 0 4.165-.17h3.91a8.355 8.355 0 0 1 1.19-.085c.736 0 1.303.113 1.7.34.283.227.51.567.68 1.02.17.453.311.907.425 1.36.113.453.113.935 0 1.445-.114.51-.029.992.255 1.445a7.732 7.732 0 0 0-.255 2.04v2.125c0 .737-.029 1.445-.085 2.125 0 .623-.142 1.162-.425 1.615a8.147 8.147 0 0 1 .17 3.315 17.047 17.047 0 0 0 0 3.4c0 .283.085.567.255.85.17.283.255.567.255.85 0 .453-.057.85-.17 1.19a3.77 3.77 0 0 0-.17 1.19c0 .227.028.425.085.595.056.113.085.283.085.51 0 .17-.029.368-.085.595a2.335 2.335 0 0 0-.085.51c0 .34.056.68.17 1.02.17.283.255.595.255.935 0 .453-.057.935-.17 1.445-.057.453-.085.907-.085 1.36 0 .68.056 1.36.17 2.04.17.68.198 1.303.085 1.87 0 .227-.057.453-.17.68-.057.17-.142.368-.255.595-.17.963-.227 2.012-.17 3.145a16.205 16.205 0 0 1 0 3.315c0 .34-.029.652-.085.935a5.272 5.272 0 0 0-.085 1.02c-.114.34-.142.68-.085 1.02.056.34.028.68-.085 1.02-.227.283-.51.482-.85.595-.34.113-.68.255-1.02.425h-2.295c-.51.057-1.02.085-1.53.085h-.68c-.227 0-.454-.028-.68-.085-.51-.057-.964-.113-1.36-.17-.397-.057-.737-.283-1.02-.68-.17-.34-.312-.822-.425-1.445a21.82 21.82 0 0 1-.085-1.785c0-.283.056-.538.17-.765.113-.283.17-.567.17-.85 0-.34-.029-.737-.085-1.19a10.948 10.948 0 0 1-.085-1.36c0-.34-.029-.68-.085-1.02a6.19 6.19 0 0 1-.085-1.02c0-.453.056-.878.17-1.275.17-.453.255-.992.255-1.615v-1.275c0-.34-.085-.68-.255-1.02a3.77 3.77 0 0 1-.17-1.19v-.51c0-.113.056-.17.17-.17.056-.057.113-.085.17-.085a1.4 1.4 0 0 0-.085-.425 1.4 1.4 0 0 1-.085-.425c0-.34.028-.652.085-.935.056-.283.085-.595.085-.935 0-.283-.085-.595-.255-.935a3.79 3.79 0 0 1-.34-.935 2.385 2.385 0 0 1-.085-1.105c.056-.397.085-.765.085-1.105v-1.785a8.4 8.4 0 0 1 .085-1.19c.113-.397.17-.793.17-1.19 0-.34-.085-.652-.255-.935a2.98 2.98 0 0 1-.17-.935c0-.453.056-.85.17-1.19.113-.397.113-.765 0-1.105-.227.057-.369.227-.425.51 0 .227-.057.425-.17.595-.057.17-.085.368-.085.595.056.17.056.312 0 .425a5.065 5.065 0 0 0-.595 1.275c-.114.34-.284.822-.51 1.445a2.775 2.775 0 0 0-.34.425.754.754 0 0 0-.085.34c-.114.453-.199.907-.255 1.36a2.642 2.642 0 0 1-.425 1.105c-.114.113-.17.312-.17.595s-.057.567-.17.85l-.51.85c-.114.227-.227.51-.34.85-.17.34-.34.878-.51 1.615-.114.68-.227 1.247-.34 1.7a.562.562 0 0 0-.085.51c.056.17.028.34-.085.51-.17.34-.369.652-.595.935-.17.227-.312.482-.425.765-.114.397-.17.765-.17 1.105.056.34.056.68 0 1.02a3.339 3.339 0 0 1-.425.765c-.114.17-.17.368-.17.595a1.16 1.16 0 0 0-.085.765c.113.227.141.482.085.765 0 .17-.057.312-.17.425a4.207 4.207 0 0 1-.255.425 20.004 20.004 0 0 0-.765 1.955 391.46 391.46 0 0 0-.765 2.125c-.057.283-.17.567-.34.85l-.34.68a9.218 9.218 0 0 0-.17 1.615c0 .453-.17.907-.51 1.36-.057.057-.227.142-.51.255a2.97 2.97 0 0 1-.85.425c-.34.17-.68.312-1.02.425-.34.113-.652.17-.935.17-.227 0-.369-.028-.425-.085-.284-.17-.68-.312-1.19-.425-.51-.113-.879-.425-1.105-.935-.284-.17-.51-.255-.68-.255-.17 0-.369-.142-.595-.425a9.256 9.256 0 0 0-.51-1.785l-.51-1.87c0-.057-.057-.113-.17-.17-.114-.113-.17-.227-.17-.34a34.73 34.73 0 0 1-.425-1.53 25.059 25.059 0 0 0-.255-1.7c-.17-.85-.51-1.53-1.02-2.04-.114-.963-.34-1.813-.68-2.55a41.308 41.308 0 0 0-.935-2.38v-1.105a4.288 4.288 0 0 0-.51-1.02c-.17-.34-.312-.68-.425-1.02-.114-.453-.199-.85-.255-1.19 0-.397-.057-.822-.17-1.275a1.548 1.548 0 0 0-.51-.68c-.17-.17-.34-.397-.51-.68-.17-.51-.312-1.048-.425-1.615a5.72 5.72 0 0 1 .085-1.7 4.688 4.688 0 0 1-.425-.935 6.315 6.315 0 0 0-.255-1.105 14.989 14.989 0 0 0-.255-.935c0-.17-.085-.425-.255-.765a6.235 6.235 0 0 0-.51-1.105c-.227-.453-.539-.737-.935-.85-.284.113-.425.368-.425.765v.85c0 .34-.029.68-.085 1.02-.057.34-.029.708.085 1.105 0 .227.028.482.085.765.056.283.113.482.17.595.113.283.226.425.34.425.17 0 .255.227.255.68 0 .34-.057.623-.17.85a6.004 6.004 0 0 1-.255.765c-.114.283-.142.51-.085.68.113.17.17.368.17.595 0 .227-.057.425-.17.595a.754.754 0 0 0-.085.34c0 .283.028.595.085.935.113.34.17.652.17.935 0 .17-.029.368-.085.595v3.23c.056.793.028 1.813-.085 3.06a23.671 23.671 0 0 0 .085 3.485c0 .85.028 1.7.085 2.55.113.85.028 1.615-.255 2.295.283.963.311 1.927.085 2.89-.227.907-.624 1.558-1.19 1.955-.397.057-.822.113-1.275.17-.397.057-.85.142-1.36.255l-1.19.17c-.34.057-.68.085-1.02.085-.68 0-1.304-.198-1.87-.595-.284-.17-.539-.453-.765-.85a8.516 8.516 0 0 1-.51-1.02 3.576 3.576 0 0 1-.085-.85c.056-.34.085-.708.085-1.105v-2.04c0-.283.056-.567.17-.85.113-.283.198-.595.255-.935v-1.275c0-.113.028-.227.085-.34.113-.17.17-.34.17-.51a8.286 8.286 0 0 0-.085-2.635 9.893 9.893 0 0 1 .085-2.89c.113-.453.198-.992.255-1.615.056-.623.085-1.247.085-1.87v-1.445c0-.51-.057-.935-.17-1.275-.114-.34-.227-.595-.34-.765a1.69 1.69 0 0 1-.17-.765 5.662 5.662 0 0 1 0-1.955c.17-.68.255-1.36.255-2.04 0-.283-.029-.538-.085-.765a2.498 2.498 0 0 1-.085-.595c0-.283.028-.51.085-.68.113-.17.17-.397.17-.68 0-.34-.029-.68-.085-1.02v-3.315c0-.283-.057-.567-.17-.85a6.19 6.19 0 0 1-.085-1.02c0-.34.056-.68.17-1.02.113-.34.226-.708.34-1.105.113-.453.141-.963.085-1.53a13.528 13.528 0 0 0-.255-1.7 7.56 7.56 0 0 0-.34-1.445 7.887 7.887 0 0 1-.17-1.53c0-.567.085-1.105.255-1.615a6.26 6.26 0 0 1 .68-1.53c.226 0 .481-.085.765-.255.283-.227.538-.34.765-.34h1.87c.793 0 1.558.057 2.295.17l.85.34c.283.057.595.113.935.17.453.113.963.17 1.53.17h1.615c.283 0 .538-.028.765-.085.226-.057.481-.085.765-.085h.255c.566.17 1.048.68 1.445 1.53.396.85.821 1.728 1.275 2.635.283.34.538.68.765 1.02.226.283.396.567.51.85.056.17.056.34 0 .51 0 .113.028.227.085.34.113.17.198.283.255.34l.255.255c.17.567.311 1.247.425 2.04.113.737.255 1.417.425 2.04.113.623.226 1.077.34 1.36.17.397.396.822.68 1.275.34.453.566.822.68 1.105.226.51.368 1.02.425 1.53.113.283.17.538.17.765.056.17.141.397.255.68.34 1.36.651 2.692.935 3.995.283 1.247.906 2.267 1.87 3.06zm15.64-22.95c0 .227.113.34.34.34h.34c.17-.057.311-.085.425-.085h.595c.226-.057.453-.085.68-.085.453 0 .765.085.935.255.113-.113.226-.17.34-.17.113 0 .198.028.255.085h.34c.283 0 .425-.113.425-.34a3.913 3.913 0 0 0-.765-.085h-.595c-.454 0-.879.028-1.275.085h-2.04zm-34.935.255c.056-.17-.085-.255-.425-.255-.397 0-.595.028-.595.085.113 0 .226.057.34.17a.942.942 0 0 0 .425.085h.085c.056-.057.113-.085.17-.085zm4.93 0c.453.113.906.17 1.36.17.623 0 1.048-.113 1.275-.34h-1.275a1.874 1.874 0 0 0-.595-.085c-.227 0-.482.085-.765.255zm24.65 0h.595c.226-.057.396-.142.51-.255-.567 0-.935.085-1.105.255zm1.36 0c.283.17.51.255.68.255.17 0 .368-.142.595-.425-.057-.057-.199-.085-.425-.085-.454 0-.737.085-.85.255zm5.525 1.36c.17.17.481.255.935.255.453 0 .68-.142.68-.425a2.48 2.48 0 0 1-.595-.085 1.595 1.595 0 0 0-.51-.085c-.284 0-.454.113-.51.34zm-33.915 0h.255c.17 0 .311.028.425.085.17.057.34.085.51.085h.255c-.057-.227-.284-.34-.68-.34-.284 0-.539.057-.765.17zm31.705 0c.226.113.51.17.85.17.396 0 .623-.113.68-.34-.114-.057-.284-.085-.51-.085-.397 0-.737.085-1.02.255zm-36.465.17c.113-.057.311-.085.595-.085.226 0 .425.028.595.085h.595c.226 0 .368-.057.425-.17-.34-.113-.765-.17-1.275-.17-.624 0-.935.113-.935.34zm8.925-.34c-.057.057-.17.085-.34.085h-.425c-.227 0-.34.028-.34.085.113.113.226.17.34.17a.75.75 0 0 0 .34-.085c.17-.113.311-.198.425-.255zm.68.34h.765c.17 0 .255-.057.255-.17-.227-.113-.369-.17-.425-.17-.284 0-.482.113-.595.34zm21.505.17c.113.113.283.113.51 0 .226-.113.481-.17.765-.17h.34c0-.227-.227-.34-.68-.34-.227 0-.454.057-.68.17-.17.113-.255.227-.255.34zm3.315 0c-.057-.113-.029-.17.085-.17h.34c.113 0 .141-.057.085-.17-.17-.113-.425-.17-.765-.17h-.85c0 .17.028.283.085.34a.75.75 0 0 1 .34.085h.085c.056-.057.113-.085.17-.085.17 0 .311.057.425.17zm7.82-.51h-1.53c0 .17.085.312.255.425.17.057.34.085.51.085.51 0 .765-.17.765-.51zm-5.95 1.7c.283.113.566.17.85.17h.85c-.17-.227-.454-.34-.85-.34-.227 0-.51.057-.85.17zm-34.255.34c.056-.17.028-.283-.085-.34-.057-.113-.142-.17-.255-.17-.114 0-.227.057-.34.17.17 0 .283.057.34.17.056.113.17.17.34.17zm4.42-.17c.056-.227-.057-.34-.34-.34-.227 0-.34.057-.34.17.056.113.283.17.68.17zm5.185-.17a.75.75 0 0 1-.34-.085c-.057-.113-.199-.142-.425-.085 0 .283.141.425.425.425.226 0 .34-.085.34-.255zm18.955.17a.75.75 0 0 1 .34.085h.34c.34 0 .566-.142.68-.425-.68 0-1.134.113-1.36.34zm4.505-.34h-.68c-.114.113-.142.198-.085.255a.75.75 0 0 0 .34.085c.34 0 .481-.113.425-.34zm7.735.595c.056-.17.028-.283-.085-.34-.057-.113-.142-.17-.255-.17-.227 0-.34.085-.34.255.17-.113.255-.085.255.085s.141.227.425.17zm-3.655.935c-.057.34.141.51.595.51.34 0 .51-.113.51-.34-.284-.113-.652-.17-1.105-.17zm-29.835 0c-.057.057-.142.085-.255.085h-.34c-.114 0-.17.028-.17.085.113.113.255.17.425.17.226 0 .34-.113.34-.34zm24.225.34c.056-.227-.142-.34-.595-.34-.34 0-.51.057-.51.17h.255c.17 0 .283.057.34.17.113.057.283.057.51 0zm1.02 0h.51a.512.512 0 0 0 .34-.34c-.17 0-.34.028-.51.085-.17 0-.284.085-.34.255zm1.19 0c.113 0 .255.028.425.085.17.057.311.085.425.085.226 0 .34-.17.34-.51-.284 0-.51.028-.68.085-.17 0-.34.085-.51.255zm2.465-.17a.578.578 0 0 0-.425-.17c-.17 0-.255.057-.255.17.113.113.255.17.425.17.17 0 .255-.057.255-.17zm2.465.17c.566 0 .878-.113.935-.34-.057.057-.142.085-.255.085a.75.75 0 0 0-.34-.085c-.227 0-.34.113-.34.34zm-4.93 1.36c.113.057.453.085 1.02.085 0-.227-.114-.34-.34-.34-.284 0-.51.085-.68.255zm-27.2.085h.765c0-.17-.085-.255-.255-.255a.75.75 0 0 0-.34.085c-.114.057-.17.113-.17.17zm-3.825-.085H51.579c-.17 0-.284.028-.34.085h.935c.17 0 .255-.028.255-.085zm-3.06 1.445c.113.113.34.17.68.17h.51c.226-.057.396-.142.51-.255h-.255c-.227 0-.51.028-.85.085h-.595zm7.055 0c.113-.057.198-.028.255.085a.75.75 0 0 0 .34.085h.085v-.17a.578.578 0 0 0-.425-.17c-.114 0-.199.057-.255.17zm-3.825.34c0-.283-.227-.425-.68-.425-.114.283.113.425.68.425zm7.48-.34a.942.942 0 0 0-.425-.085h-.425c0 .283.113.425.34.425.226 0 .396-.113.51-.34zm26.435 0h-.255c-.057-.057-.142-.085-.255-.085h-.17c-.17.227-.085.34.255.34.283 0 .425-.085.425-.255zm1.785 0c0 .283.085.425.255.425.17 0 .311-.028.425-.085 0-.283-.142-.425-.425-.425-.057 0-.114.028-.17.085h-.085zm-33.405 1.53a.75.75 0 0 1-.34-.085c-.057-.057-.199-.085-.425-.085-.114.34.028.51.425.51.226 0 .34-.113.34-.34zm3.655.17c.056.113.17.17.34.17s.311-.113.425-.34c0-.057-.114-.085-.34-.085-.284 0-.425.085-.425.255zm22.695.17h.425c.17-.057.255-.17.255-.34l-.17-.085c-.227 0-.397.142-.51.425zm-31.535 4.25H48.859c-.227 0-.34.028-.34.085H49.369c.17 0 .283-.028.34-.085zm35.53 0a.942.942 0 0 1-.425.085.75.75 0 0 0-.34-.085c-.114 0-.17.028-.17.085.226.113.425.17.595.17.226 0 .34-.085.34-.255zm2.21 3.145c.113.113.311.17.595.17.396 0 .708-.113.935-.34h-.425a.75.75 0 0 0-.34-.085c-.34 0-.595.085-.765.255zm-24.31 3.06c.113 0 .198.028.255.085h.255c.17 0 .255-.085.255-.255 0-.057-.142-.085-.425-.085-.227 0-.34.085-.34.255zm-12.58.085h.595c.226-.057.396-.142.51-.255h-.935c-.17 0-.227.085-.17.255zM98.979 125.8c0-.17-.029-.34-.085-.51a1.884 1.884 0 0 1-.085-.595c0-.17.028-.34.085-.51.056-.17.113-.368.17-.595.113-.793.198-1.643.255-2.55.113-.963.396-1.672.85-2.125-.057-.793 0-1.643.17-2.55.226-.907.651-1.558 1.275-1.955a20.76 20.76 0 0 1 1.105-2.72c.453-.85 1.076-1.473 1.87-1.87.113-.567.396-1.077.85-1.53a.966.966 0 0 1 .255-.17 1.08 1.08 0 0 0 .425-.255c.056-.227.198-.453.425-.68.113-.113.226-.17.34-.17a1.08 1.08 0 0 0 .425-.255c.283-.227.538-.51.765-.85.283-.34.595-.595.935-.765.453-.283.878-.482 1.275-.595.453-.17.85-.453 1.19-.85 1.19-.113 2.181-.368 2.975-.765a6.863 6.863 0 0 1 2.635-.85c1.416 0 2.805.085 4.165.255.226 0 .396.028.51.085.17.057.368.085.595.085h.935c.51.113 1.048.283 1.615.51.566.17 1.133.368 1.7.595.85.227 1.643.538 2.38.935.113.113.226.17.34.17.17 0 .34.028.51.085.113.113.198.255.255.425.113.113.255.198.425.255.283.283.538.482.765.595.226.113.481.312.765.595l1.615 1.615c.68.567 1.19 1.077 1.53 1.53.34.567.651 1.19.935 1.87.283.623.595 1.275.935 1.955.17.397.34.737.51 1.02.17.283.34.595.51.935.113.34.198.708.255 1.105.056.397.141.765.255 1.105.283.737.538 1.445.765 2.125a9.1 9.1 0 0 1 .595 2.21c.113.453.17.907.17 1.36 0 .453.056.878.17 1.275 0 .453.028.907.085 1.36.113.453.17.85.17 1.19 0 .17-.057.34-.17.51a2.17 2.17 0 0 1-.255.51c-.114.283-.17.51-.17.68v.595c-.057.453-.142.85-.255 1.19a15.8 15.8 0 0 1-.255 1.19c-.114.453-.17.878-.17 1.275.056.397 0 .822-.17 1.275a2.17 2.17 0 0 1-.255.51c-.057.17-.085.34-.085.51-.17.623-.255 1.162-.255 1.615 0 .453-.085.907-.255 1.36a2.279 2.279 0 0 1-.425.595c-.17.113-.312.283-.425.51-.34.453-.68.992-1.02 1.615-.34.623-.709 1.247-1.105 1.87a12.1 12.1 0 0 1-.765 1.02l-.85 1.02c-.737.793-1.332 1.388-1.785 1.785-.397.397-1.077.85-2.04 1.36a3.77 3.77 0 0 1-.68.34c-.17 0-.34.057-.51.17l-.425.425c-.114.17-.227.283-.34.34-.114.057-.284.085-.51.085-.17 0-.34.057-.51.17a1.366 1.366 0 0 1-.34.255c-.114.113-.227.17-.34.17-.454.113-.964.198-1.53.255l-1.53.34h-.68c-.397.113-.964.198-1.7.255-.737.113-1.502.17-2.295.17-.284 0-.539-.028-.765-.085h-.595c-.284 0-.567-.057-.85-.17-.227-.057-.51-.113-.85-.17a4.054 4.054 0 0 0-1.105-.17c-.284 0-.567-.057-.85-.17a4.93 4.93 0 0 0-.85-.255 4.877 4.877 0 0 1-.85-.255l-.85-.425c-.397-.227-.85-.453-1.36-.68a39 39 0 0 0-1.445-.765 16.146 16.146 0 0 0-.85-.51c-.34-.17-.68-.482-1.02-.935a53.09 53.09 0 0 0-.935-1.36 8.94 8.94 0 0 0-1.105-1.36 25.4 25.4 0 0 1-1.02-1.275c-.17-.397-.34-.765-.51-1.105-.17-.397-.34-.765-.51-1.105a1.301 1.301 0 0 1-.255-.34 53.852 53.852 0 0 1-.17-.34.94.94 0 0 1-.085-.425.577.577 0 0 0-.17-.425 2.353 2.353 0 0 0-.595-.68c-.17-.17-.312-.34-.425-.51a2.778 2.778 0 0 1-.085-.68 2.171 2.171 0 0 0 0-.85 7.855 7.855 0 0 0-.425-1.02 7.8 7.8 0 0 1-.425-1.02c-.114-.17-.142-.312-.085-.425.056-.17.085-.368.085-.595 0-.113-.057-.227-.17-.34a.754.754 0 0 1-.085-.34c0-.283.028-.567.085-.85.056-.34.028-.652-.085-.935-.114-.227-.255-.737-.425-1.53-.17-.793-.255-1.417-.255-1.87 0-.283.056-.538.17-.765.17-.227.255-.482.255-.765zm11.9 8.075c.113.34.17.708.17 1.105 0 .34.056.623.17.85a3.9 3.9 0 0 0 .51 1.105c.283.34.425.737.425 1.19.283.283.538.595.765.935.283.283.538.567.765.85.283.34.51.567.68.68.17.057.396.227.68.51.17.057.283.17.34.34l.34.34c.056.057.17.085.34.085s.283.028.34.085c.113 0 .226.057.34.17l.17.17c.85.283 1.671.425 2.465.425.68 0 1.388-.085 2.125-.255 1.643-.453 2.918-1.105 3.825-1.955.623-.453 1.076-.878 1.36-1.275.34-.453.68-1.048 1.02-1.785.113-.34.283-.652.51-.935.226-.34.368-.652.425-.935v-.34c.113-.283.141-.538.085-.765-.057-.227-.029-.51.085-.85.17-.907.368-1.927.595-3.06.226-1.19.255-2.267.085-3.23a43.073 43.073 0 0 0-.34-1.275 4.6 4.6 0 0 1-.17-1.275 7.74 7.74 0 0 1 0-2.295 8.397 8.397 0 0 0 0-2.38c-.057-.227-.199-.623-.425-1.19a20.467 20.467 0 0 0-.595-1.7 27.187 27.187 0 0 0-.68-1.7c-.227-.567-.397-.935-.51-1.105a1.387 1.387 0 0 0-.595-.68 10.309 10.309 0 0 1-.85-.765 27.378 27.378 0 0 1-1.275-1.36c-.397-.453-.964-.652-1.7-.595-.567-.397-1.275-.595-2.125-.595-.624 0-1.247.085-1.87.255-.624.17-1.162.34-1.615.51-.284.113-.51.17-.68.17-.17 0-.34.028-.51.085-.397.227-.822.595-1.275 1.105-.397.453-.737.822-1.02 1.105a4.096 4.096 0 0 0-.51.595c-.057.17-.199.34-.425.51a73.47 73.47 0 0 0-1.19 3.74 33.21 33.21 0 0 0-.765 4.25 8.737 8.737 0 0 0-.085 2.125c.056.737.085 1.502.085 2.295 0 .68-.029 1.36-.085 2.04-.057.68-.085 1.332-.085 1.955s.085 1.133.255 1.53c.17.34.311.737.425 1.19zm10.37-26.86c.113.113.34.17.68.17-.057-.227-.369-.34-.935-.34h-1.275c0 .283.198.425.595.425.17 0 .34-.028.51-.085.17-.057.311-.113.425-.17zm-5.185 0c.113.113.198.17.255.17h.425c.226 0 .453-.057.68-.17l.17.17a.747.747 0 0 0 .34.085c.283 0 .425-.142.425-.425h-1.105a1.595 1.595 0 0 0-.51-.085c-.284 0-.51.085-.68.255zm14.11 1.36c-.114.057-.284.085-.51.085h-.595c-.284 0-.454.028-.51.085.17.057.34.142.51.255.226.057.425.085.595.085.283 0 .453-.17.51-.51zm-16.915-1.19c0-.283-.17-.425-.51-.425-.397 0-.595.142-.595.425h1.105zm8.67-1.36c.113-.113.226-.17.34-.17.113-.057.17-.142.17-.255-.057-.057-.227-.085-.51-.085-.567 0-1.02.057-1.36.17.226.113.396.17.51.17h.34c.226 0 .396.057.51.17zm1.87-.17h1.19c.226 0 .396-.057.51-.17-.057-.057-.199-.085-.425-.085-.34 0-.737.057-1.19.17-.397.057-.425.085-.085.085zm-16.065 5.78c.056.227.311.34.765.34.566 0 .963-.057 1.19-.17-.057-.057-.199-.085-.425-.085h-.68c-.397 0-.68-.028-.85-.085zm17.765-4.59h-.51c-.227 0-.454.028-.68.085-.17 0-.284.085-.34.255h.85c.34-.057.566-.17.68-.34zm-5.61-1.445H118.614c-.227 0-.397.028-.51.085.34.113.68.17 1.02.17.34 0 .595-.085.765-.255zm12.665 7.65h-.255c-.057-.057-.142-.085-.255-.085h-.17c-.057.283.056.425.34.425.226 0 .34-.113.34-.34zm-21.08-4.505c-.057-.113-.284-.17-.68-.17-.17.283-.057.425.34.425.226 0 .34-.085.34-.255zm1.615-.17v.34h1.02v-.34h-1.02zm1.53-2.72h.935c.113 0 .226-.057.34-.17-.057-.057-.199-.085-.425-.085-.454 0-.737.085-.85.255zm10.88 2.72c-.17 0-.369.028-.595.085-.227 0-.369.085-.425.255h.51a.83.83 0 0 0 .51-.34zm3.825 1.53c-.057.057-.17.085-.34.085h-.51c-.17 0-.284.028-.34.085.113 0 .226.028.34.085h.425c.226 0 .368-.085.425-.255zm-9.69-2.72v-.34h-.595v.34h.595zm-3.485 1.53c.396 0 .595-.057.595-.17-.057 0-.114.028-.17.085h-.085a.94.94 0 0 1-.425-.085c-.114-.113-.227-.17-.34-.17-.057.227.085.34.425.34zm9.52-.34v.34h.51v-.34h-.51zM145.716 125.8c0-.17-.028-.34-.085-.51a1.873 1.873 0 0 1-.085-.595c0-.17.028-.34.085-.51.057-.17.113-.368.17-.595.113-.793.198-1.643.255-2.55.113-.963.397-1.672.85-2.125-.057-.793 0-1.643.17-2.55.227-.907.652-1.558 1.275-1.955a20.76 20.76 0 0 1 1.105-2.72c.453-.85 1.077-1.473 1.87-1.87.113-.567.397-1.077.85-1.53a1 1 0 0 1 .255-.17c.17-.057.312-.142.425-.255.057-.227.198-.453.425-.68.113-.113.227-.17.34-.17.17-.057.312-.142.425-.255.283-.227.538-.51.765-.85.283-.34.595-.595.935-.765.453-.283.878-.482 1.275-.595.453-.17.85-.453 1.19-.85 1.19-.113 2.182-.368 2.975-.765a6.869 6.869 0 0 1 2.635-.85c1.417 0 2.805.085 4.165.255.227 0 .397.028.51.085.17.057.368.085.595.085h.935c.51.113 1.048.283 1.615.51.567.17 1.133.368 1.7.595.85.227 1.643.538 2.38.935.113.113.227.17.34.17.17 0 .34.028.51.085.113.113.198.255.255.425.113.113.255.198.425.255.283.283.538.482.765.595.227.113.482.312.765.595l1.615 1.615c.68.567 1.19 1.077 1.53 1.53.34.567.652 1.19.935 1.87.283.623.595 1.275.935 1.955.17.397.34.737.51 1.02.17.283.34.595.51.935.113.34.198.708.255 1.105.057.397.142.765.255 1.105.283.737.538 1.445.765 2.125.283.68.482 1.417.595 2.21.113.453.17.907.17 1.36 0 .453.057.878.17 1.275 0 .453.028.907.085 1.36.113.453.17.85.17 1.19 0 .17-.057.34-.17.51a2.17 2.17 0 0 1-.255.51c-.113.283-.17.51-.17.68v.595c-.057.453-.142.85-.255 1.19a15.8 15.8 0 0 1-.255 1.19c-.113.453-.17.878-.17 1.275.057.397 0 .822-.17 1.275a2.17 2.17 0 0 1-.255.51c-.057.17-.085.34-.085.51-.17.623-.255 1.162-.255 1.615 0 .453-.085.907-.255 1.36a2.256 2.256 0 0 1-.425.595c-.17.113-.312.283-.425.51-.34.453-.68.992-1.02 1.615-.34.623-.708 1.247-1.105 1.87a12.1 12.1 0 0 1-.765 1.02l-.85 1.02c-.737.793-1.332 1.388-1.785 1.785-.397.397-1.077.85-2.04 1.36-.283.17-.51.283-.68.34-.17 0-.34.057-.51.17l-.425.425c-.113.17-.227.283-.34.34-.113.057-.283.085-.51.085-.17 0-.34.057-.51.17a1.348 1.348 0 0 1-.34.255c-.113.113-.227.17-.34.17-.453.113-.963.198-1.53.255l-1.53.34h-.68c-.397.113-.963.198-1.7.255-.737.113-1.502.17-2.295.17-.283 0-.538-.028-.765-.085h-.595a2.28 2.28 0 0 1-.85-.17c-.227-.057-.51-.113-.85-.17a4.054 4.054 0 0 0-1.105-.17 2.28 2.28 0 0 1-.85-.17 4.903 4.903 0 0 0-.85-.255 4.903 4.903 0 0 1-.85-.255l-.85-.425c-.397-.227-.85-.453-1.36-.68a39 39 0 0 0-1.445-.765 15.713 15.713 0 0 0-.85-.51c-.34-.17-.68-.482-1.02-.935a53.09 53.09 0 0 0-.935-1.36 8.88 8.88 0 0 0-1.105-1.36 25.4 25.4 0 0 1-1.02-1.275c-.17-.397-.34-.765-.51-1.105-.17-.397-.34-.765-.51-1.105a1.348 1.348 0 0 1-.255-.34l-.17-.34a.94.94 0 0 1-.085-.425.577.577 0 0 0-.17-.425 2.338 2.338 0 0 0-.595-.68c-.17-.17-.312-.34-.425-.51a2.778 2.778 0 0 1-.085-.68 2.134 2.134 0 0 0 0-.85 7.744 7.744 0 0 0-.425-1.02c-.17-.34-.312-.68-.425-1.02-.113-.17-.142-.312-.085-.425.057-.17.085-.368.085-.595 0-.113-.057-.227-.17-.34a.75.75 0 0 1-.085-.34 4.3 4.3 0 0 1 .085-.85c.057-.34.028-.652-.085-.935-.113-.227-.255-.737-.425-1.53-.17-.793-.255-1.417-.255-1.87 0-.283.057-.538.17-.765.17-.227.255-.482.255-.765zm11.9 8.075c.113.34.17.708.17 1.105 0 .34.057.623.17.85a3.9 3.9 0 0 0 .51 1.105c.283.34.425.737.425 1.19.283.283.538.595.765.935.283.283.538.567.765.85.283.34.51.567.68.68.17.057.397.227.68.51.17.057.283.17.34.34l.34.34c.057.057.17.085.34.085s.283.028.34.085c.113 0 .227.057.34.17l.17.17c.85.283 1.672.425 2.465.425.68 0 1.388-.085 2.125-.255 1.643-.453 2.918-1.105 3.825-1.955.623-.453 1.077-.878 1.36-1.275.34-.453.68-1.048 1.02-1.785.113-.34.283-.652.51-.935.227-.34.368-.652.425-.935v-.34c.113-.283.142-.538.085-.765-.057-.227-.028-.51.085-.85.17-.907.368-1.927.595-3.06.227-1.19.255-2.267.085-3.23a40.19 40.19 0 0 0-.34-1.275 4.638 4.638 0 0 1-.17-1.275 7.808 7.808 0 0 1 0-2.295 8.397 8.397 0 0 0 0-2.38c-.057-.227-.198-.623-.425-1.19a20.108 20.108 0 0 0-.595-1.7 26.586 26.586 0 0 0-.68-1.7c-.227-.567-.397-.935-.51-1.105a1.382 1.382 0 0 0-.595-.68 10.474 10.474 0 0 1-.85-.765 28.356 28.356 0 0 1-1.275-1.36c-.397-.453-.963-.652-1.7-.595-.567-.397-1.275-.595-2.125-.595a7.08 7.08 0 0 0-1.87.255c-.623.17-1.162.34-1.615.51-.283.113-.51.17-.68.17-.17 0-.34.028-.51.085-.397.227-.822.595-1.275 1.105-.397.453-.737.822-1.02 1.105a4.096 4.096 0 0 0-.51.595c-.057.17-.198.34-.425.51a74.486 74.486 0 0 0-1.19 3.74 33.21 33.21 0 0 0-.765 4.25 8.788 8.788 0 0 0-.085 2.125c.057.737.085 1.502.085 2.295 0 .68-.028 1.36-.085 2.04-.057.68-.085 1.332-.085 1.955s.085 1.133.255 1.53c.17.34.312.737.425 1.19zm10.37-26.86c.113.113.34.17.68.17-.057-.227-.368-.34-.935-.34h-1.275c0 .283.198.425.595.425.17 0 .34-.028.51-.085.17-.057.312-.113.425-.17zm-5.185 0c.113.113.198.17.255.17h.425c.227 0 .453-.057.68-.17l.17.17a.75.75 0 0 0 .34.085c.283 0 .425-.142.425-.425h-1.105a1.595 1.595 0 0 0-.51-.085c-.283 0-.51.085-.68.255zm14.11 1.36c-.113.057-.283.085-.51.085h-.595c-.283 0-.453.028-.51.085.17.057.34.142.51.255.227.057.425.085.595.085.283 0 .453-.17.51-.51zm-16.915-1.19c0-.283-.17-.425-.51-.425-.397 0-.595.142-.595.425h1.105zm8.67-1.36c.113-.113.227-.17.34-.17.113-.057.17-.142.17-.255-.057-.057-.227-.085-.51-.085-.567 0-1.02.057-1.36.17.227.113.397.17.51.17h.34c.227 0 .397.057.51.17zm1.87-.17h1.19c.227 0 .397-.057.51-.17-.057-.057-.198-.085-.425-.085-.34 0-.737.057-1.19.17-.397.057-.425.085-.085.085zm-16.065 5.78c.057.227.312.34.765.34.567 0 .963-.057 1.19-.17-.057-.057-.198-.085-.425-.085h-.68c-.397 0-.68-.028-.85-.085zm17.765-4.59h-.51c-.227 0-.453.028-.68.085-.17 0-.283.085-.34.255h.85c.34-.057.567-.17.68-.34zm-5.61-1.445H165.351c-.227 0-.397.028-.51.085.34.113.68.17 1.02.17.34 0 .595-.085.765-.255zm12.665 7.65h-.255c-.057-.057-.142-.085-.255-.085h-.17c-.057.283.057.425.34.425.227 0 .34-.113.34-.34zm-21.08-4.505c-.057-.113-.283-.17-.68-.17-.17.283-.057.425.34.425.227 0 .34-.085.34-.255zm1.615-.17v.34h1.02v-.34h-1.02zm1.53-2.72h.935c.113 0 .227-.057.34-.17-.057-.057-.198-.085-.425-.085-.453 0-.737.085-.85.255zm10.88 2.72c-.17 0-.368.028-.595.085-.227 0-.368.085-.425.255h.51a.825.825 0 0 0 .51-.34zm3.825 1.53c-.057.057-.17.085-.34.085h-.51c-.17 0-.283.028-.34.085a.75.75 0 0 1 .34.085h.425c.227 0 .368-.085.425-.255zm-9.69-2.72v-.34h-.595v.34h.595zm-3.485 1.53c.397 0 .595-.057.595-.17-.057 0-.113.028-.17.085h-.085a.94.94 0 0 1-.425-.085c-.113-.113-.227-.17-.34-.17-.057.227.085.34.425.34zm9.52-.34v.34h.51v-.34h-.51zM223.218 110.585a9.384 9.384 0 0 0-.765.68c-.227.17-.482.368-.765.595h-.85c-.227 0-.482-.057-.765-.17l-.85-.17a3.147 3.147 0 0 0-.765-.085c-.51 0-1.02.085-1.53.255-.453.113-.935.17-1.445.17h-.85a4.3 4.3 0 0 0-.85-.085c-.51 0-1.077.085-1.7.255a5.058 5.058 0 0 0-.68 2.55c0 .907.057 1.842.17 2.805 0 .283.028.538.085.765.113.227.17.482.17.765 0 .453-.085.907-.255 1.36-.113.397-.17.85-.17 1.36 0 .34.057.652.17.935.17.283.255.623.255 1.02 0 .34-.028.68-.085 1.02-.057.34-.085.68-.085 1.02 0 .567.028 1.133.085 1.7.113.51.142 1.02.085 1.53 0 .34-.085.652-.255.935-.113.283-.17.595-.17.935 0 .453.028.878.085 1.275.113.34.17.737.17 1.19 0 .51-.057.992-.17 1.445a8.985 8.985 0 0 0-.085 1.275c0 .623.057 1.218.17 1.785a5.89 5.89 0 0 1 .255 1.7c0 .68-.085 1.332-.255 1.955-.113.567-.028 1.162.255 1.785a7.36 7.36 0 0 0-.17 2.72c.113.85.113 1.842 0 2.975-.283.283-.51.567-.68.85-.17.283-.397.482-.68.595h-.255c-.17 0-.255.085-.255.255h-3.485c-.453 0-.878.057-1.275.17-.34.113-.737.17-1.19.17h-.255a10.445 10.445 0 0 1-1.615-.51c-.567-.17-.935-.453-1.105-.85-.283-.34-.397-.68-.34-1.02.113-.34.17-.737.17-1.19 0-.623-.028-1.275-.085-1.955a7.98 7.98 0 0 1 .085-2.04c0-.283.028-.538.085-.765.057-.227.085-.425.085-.595 0-.34-.085-.595-.255-.765-.17-.227-.255-.453-.255-.68v-2.975c.057-.68.17-1.247.34-1.7a25.647 25.647 0 0 1-.425-4.675c0-1.643.085-3.315.255-5.015v-.68c.113-.453.17-1.077.17-1.87v-3.74c0-.623.028-1.218.085-1.785a6.395 6.395 0 0 0 .085-1.785c0-.17-.057-.368-.17-.595-.113-.227-.17-.397-.17-.51 0-.453.057-.935.17-1.445.113-.567-.057-1.048-.51-1.445-.283-.283-.708-.425-1.275-.425a5.69 5.69 0 0 0-.935.085 4.3 4.3 0 0 1-.85.085c-.793 0-1.558-.057-2.295-.17a14.556 14.556 0 0 0-2.21-.17c-.34 0-.652.028-.935.085h-.765c-.68 0-1.275-.255-1.785-.765-.17-.113-.34-.312-.51-.595-.113-.283-.227-.482-.34-.595-.113-.113-.142-.255-.085-.425a1.39 1.39 0 0 0 .085-.425l-.34-.425c0-.283.057-.567.17-.85.113-.34.17-.68.17-1.02 0-.283-.028-.538-.085-.765a3.147 3.147 0 0 1-.085-.765c.113-.623.283-1.105.51-1.445l.85-1.02c.227-.057.708-.085 1.445-.085H193.723c.34 0 .652-.028.935-.085.283-.057.538-.085.765-.085a4.3 4.3 0 0 1 .85-.085c.907 0 1.87.085 2.89.255a30.14 30.14 0 0 0 3.145.17c.623 0 1.218-.057 1.785-.17a6.182 6.182 0 0 1 1.785-.255c.453 0 .878.028 1.275.085.453.057.907.142 1.36.255.057 0 .142.057.255.17a.75.75 0 0 0 .34.085c.34 0 .68-.028 1.02-.085a6.158 6.158 0 0 1 2.04 0 7.8 7.8 0 0 0 1.105.085c.51 0 .963-.057 1.36-.17.453-.113.907-.17 1.36-.17.34 0 .595.028.765.085.113 0 .227.057.34.17a.75.75 0 0 0 .34.085 4.3 4.3 0 0 0 .85-.085 2.28 2.28 0 0 1 .85-.17c.283 0 .595.057.935.17.397.113.765.227 1.105.34.227 0 .538.057.935.17.453.057.737.227.85.51.227.283.312.652.255 1.105 0 .453.057.963.17 1.53.113.85.17 1.587.17 2.21.057.623-.057 1.247-.34 1.87zm-23.035-4.93h.425c.17-.057.255-.142.255-.255a.577.577 0 0 0-.425-.17c-.283 0-.368.142-.255.425zm1.02 0h.51c.227 0 .34-.085.34-.255-.057-.057-.142-.085-.255-.085-.283 0-.482.113-.595.34zm1.53-.17.68.17c.227.057.453.085.68.085.283 0 .51-.085.68-.255-.113-.113-.283-.17-.51-.17h-.51c-.51 0-.85.057-1.02.17zm10.03.17h.51a4.3 4.3 0 0 1 .85.085h.765c.397 0 .708-.085.935-.255-.227-.113-.652-.17-1.275-.17-.737 0-1.332.113-1.785.34zm-18.615 0c0-.17-.227-.255-.68-.255h-1.19c.057.227.198.34.425.34.113 0 .255-.028.425-.085.227-.057.425-.085.595-.085.113 0 .17.028.17.085h.255zm1.7 0h.425c.227 0 .312-.085.255-.255-.283 0-.51.085-.68.255zm2.635-.255h-1.02c-.227 0-.34.028-.34.085.227.113.482.17.765.17.34 0 .538-.085.595-.255zm8.925.255h.51v-.255h-.51v.255zm2.465 0h.765c.17 0 .255-.057.255-.17-.057-.057-.255-.085-.595-.085-.283 0-.425.085-.425.255zm1.105 0h.85c.057 0 .198-.057.425-.17-.113-.057-.368-.085-.765-.085-.34 0-.51.085-.51.255zm8.84-.17c-.227-.057-.595-.085-1.105-.085 0 .283.198.425.595.425.283 0 .453-.113.51-.34zm-18.19 1.7c.17.057.453.085.85.085a4.3 4.3 0 0 0 .85-.085c.34-.057.567-.17.68-.34-.113.057-.312.085-.595.085-.227 0-.453-.028-.68-.085a1.595 1.595 0 0 0-.51-.085c-.34 0-.538.142-.595.425zm-8.67 0h.51v-.34h-.51v.34zm1.19 0h1.275c0-.17-.142-.255-.425-.255-.397 0-.68.085-.85.255zm3.23 0c.057-.227-.113-.34-.51-.34-.34 0-.51.057-.51.17.113 0 .227.057.34.17.17.057.312.085.425.085h.085c.057-.057.113-.085.17-.085zm2.125 0c0-.227-.227-.34-.68-.34-.397 0-.652.057-.765.17.283 0 .482.057.595.17.113.057.283.085.51.085h.085c.057-.057.142-.085.255-.085zm6.715-.17a.577.577 0 0 0-.425-.17c-.17 0-.255.057-.255.17.113.113.255.17.425.17.17 0 .255-.057.255-.17zm3.825.17c.227.057.567.085 1.02.085.453 0 .85-.085 1.19-.255a2.202 2.202 0 0 0-.68-.085c-.17 0-.368.028-.595.085h-.595c-.227 0-.567-.057-1.02-.17-.057.227.057.34.34.34h.34zm2.38 0c.453 0 .708-.113.765-.34-.453 0-.708.113-.765.34zm5.355-.17a.94.94 0 0 1-.425-.085c-.113-.057-.283-.085-.51-.085h-.17c0 .34.198.51.595.51.283 0 .453-.113.51-.34zm2.72 0c-.17 0-.283-.028-.34-.085-.057-.113-.17-.142-.34-.085-.17.283-.085.425.255.425.283 0 .425-.085.425-.255zm1.105 0h-.17l-.085.085a.94.94 0 0 1-.425-.085c-.057-.113-.142-.17-.255-.17-.057.227.085.34.425.34.34 0 .51-.057.51-.17zm-28.135 1.53h.765c.17 0 .255-.057.255-.17-.057-.057-.17-.085-.34-.085-.283 0-.51.085-.68.255zm-1.53.17h.85c.283 0 .397-.113.34-.34h-.85c-.227 0-.34.113-.34.34zm3.74-.17c-.113-.113-.283-.17-.51-.17-.227 0-.34.057-.34.17a1 1 0 0 1 .255.17c.057.057.142.085.255.085.17 0 .283-.085.34-.255zm2.21-.17c-.283.057-.255.142.085.255.34.057.737.085 1.19.085.623 0 .907-.113.85-.34-.34.113-.567.17-.68.17-.283 0-.538-.028-.765-.085a2.778 2.778 0 0 0-.68-.085zm4.335.17c-.113-.113-.453-.17-1.02-.17-.057.283.085.425.425.425.34 0 .538-.085.595-.255zm.34.17c.453 0 .68-.113.68-.34h-.255c-.34 0-.482.113-.425.34zm1.275-.17c.283 0 .51.028.68.085.227.057.425.085.595.085.227 0 .425-.113.595-.34-.113.057-.34.085-.68.085h-.765c-.34 0-.482.028-.425.085zm2.55.17h.595c.283 0 .425-.113.425-.34h-.34c-.453 0-.68.113-.68.34zm4.505 0c.057-.227-.028-.34-.255-.34h-.595c-.057.227 0 .34.17.34h.68zm1.87 0h.425c.227 0 .312-.113.255-.34-.453 0-.68.113-.68.34zm6.375-.17c-.113-.113-.283-.17-.51-.17-.227 0-.34.057-.34.17.113.113.312.17.595.17.17 0 .255-.057.255-.17zm-15.895 1.53c-.113-.113-.283-.17-.51-.17h-.51c-.057.227.113.34.51.34h.34c.113-.057.17-.113.17-.17zm4.675 0c-.34-.113-.538-.17-.595-.17-.17 0-.227.057-.17.17.057.113.17.17.34.17.057 0 .198-.057.425-.17zm1.53 0a.75.75 0 0 1-.34-.085.75.75 0 0 0-.34-.085c-.17 0-.255.057-.255.17.113.113.283.17.51.17.283 0 .425-.057.425-.17zm.595.17h.255c.34 0 .482-.113.425-.34-.453 0-.68.113-.68.34zm-5.015 1.445c.057 0 .113.028.17.085h.255c.17 0 .255-.057.255-.17 0-.057-.113-.085-.34-.085-.227 0-.34.057-.34.17zm1.19 1.36a.75.75 0 0 0-.34-.085h-.34c-.17.227-.085.34.255.34.283 0 .425-.085.425-.255zM239.197 111.35c.226.567.368 1.275.425 2.125a38.78 38.78 0 0 1 0 5.1c-.057.85-.085 1.587-.085 2.21.283.283.651.453 1.105.51.51.057 1.02.085 1.53.085h1.53c.51-.057.963-.085 1.36-.085.283 0 .566-.028.85-.085.283-.057.566-.085.85-.085.17 0 .34.028.51.085.17.057.34.085.51.085H251.437c.113 0 .198-.057.255-.17a.577.577 0 0 1 .425-.17c.17-.057.396-.085.68-.085h1.105c.226-.057.453-.17.68-.34.056-.68.085-1.36.085-2.04 0-.68.056-1.417.17-2.21.113-.283.198-.567.255-.85.113-.34.17-.68.17-1.02 0-.68-.057-1.332-.17-1.955a21.482 21.482 0 0 1-.085-1.955c0-.567.028-1.105.085-1.615.056-.567.085-1.077.085-1.53 0-.793-.085-1.502-.255-2.125-.114-.623.056-1.218.51-1.785.056-.113.17-.227.34-.34.226-.113.368-.227.425-.34.34-.113.566-.17.68-.17h3.74c.34 0 .935.028 1.785.085.906.057 1.473.142 1.7.255.453.283.765.793.935 1.53.226.68.34 1.473.34 2.38.056.907.056 1.842 0 2.805-.057.907-.114 1.7-.17 2.38-.114.34-.17.85-.17 1.53v1.7c0 .793.056 1.615.17 2.465.113.85.198 1.53.255 2.04v1.53c0 .113-.057.283-.17.51-.057.17-.085.34-.085.51a17.796 17.796 0 0 0 0 3.485c.17 1.133.226 2.182.17 3.145 0 .283-.057.538-.17.765a1.68 1.68 0 0 0-.17.765 5.155 5.155 0 0 0 0 1.87c.113.567.17 1.133.17 1.7 0 .34-.057.68-.17 1.02-.114.34-.17.68-.17 1.02 0 .907.028 1.813.085 2.72.056.85.141 1.672.255 2.465 0 .453-.029.878-.085 1.275a8.985 8.985 0 0 0-.085 1.275c0 .283.056.538.17.765.113.227.17.482.17.765a8.77 8.77 0 0 1-.34 2.975c-.284.963-.68 1.615-1.19 1.955a9.9 9.9 0 0 0-.765.34 8.118 8.118 0 0 0-.595.17c-.17.057-.284.085-.34.085h-.34c-.454 0-.935-.028-1.445-.085-.51-.057-1.02-.085-1.53-.085h-1.105a4.307 4.307 0 0 1-.85.085c-.51 0-.907-.142-1.19-.425-.284-.283-.51-.652-.68-1.105a8.313 8.313 0 0 1-.255-1.275 11.83 11.83 0 0 1-.085-1.275c0-.34.056-.68.17-1.02.113-.34.17-.68.17-1.02 0-.453-.029-.878-.085-1.275a12.818 12.818 0 0 0-.255-1.275c-.057-.453-.114-.85-.17-1.19v-1.105c0-.793.085-1.502.255-2.125.17-.623.255-1.275.255-1.955 0-.793-.085-1.53-.255-2.21-.114-.68-.17-1.473-.17-2.38-.284-.283-.652-.425-1.105-.425-.284 0-.595.057-.935.17a5.69 5.69 0 0 1-.935.085h-.595c-.567 0-1.105-.028-1.615-.085a7.453 7.453 0 0 0-1.615-.17c-.34 0-.652.057-.935.17a4.755 4.755 0 0 1-.935.085c-.227 0-.454-.028-.68-.085a.917.917 0 0 0-.51-.17c-.397 0-.794.028-1.19.085-.34.057-.737.085-1.19.085h-1.19c-.227 0-.454.028-.68.085a1.05 1.05 0 0 0-.595.17c-.454.567-.595 1.162-.425 1.785.17.623.255 1.275.255 1.955 0 .34-.057.708-.17 1.105a4.289 4.289 0 0 0-.085 2.04c.056.283.085.595.085.935a5.8 5.8 0 0 1-.085.935 4.3 4.3 0 0 0-.085.85c0 .34.056.652.17.935.113.283.17.652.17 1.105 0 .34-.057.708-.17 1.105-.114.397-.17.765-.17 1.105 0 .283.028.567.085.85.056.283.085.567.085.85.113.68.17 1.218.17 1.615 0 .34-.227.737-.68 1.19-.284.283-.539.482-.765.595-.17.17-.482.312-.935.425-.284.227-.624.34-1.02.34-.454 0-.907-.057-1.36-.17a4.638 4.638 0 0 0-1.275-.17c-.454 0-.879.028-1.275.085-.397.113-.822.17-1.275.17a.747.747 0 0 1-.34-.085h-.34c-.284-.283-.539-.482-.765-.595-.227-.113-.425-.312-.595-.595-.114-.34-.142-.765-.085-1.275.056-.51.056-1.162 0-1.955 0-.227-.057-.453-.17-.68a2.26 2.26 0 0 1-.17-.85 11.543 11.543 0 0 1 0-2.805c0-.51.056-.992.17-1.445.113-.453.198-.907.255-1.36a5.677 5.677 0 0 0 0-1.955 15.417 15.417 0 0 1 0-2.295c.113-.963.198-1.898.255-2.805a49.79 49.79 0 0 0 .085-2.89c0-1.247-.142-2.465-.425-3.655-.227-1.247-.284-2.437-.17-3.57.113-.51.226-.963.34-1.36.17-.453.255-.85.255-1.19.056-.68 0-1.502-.17-2.465a10.849 10.849 0 0 1 0-2.72c0-.34.028-.708.085-1.105.056-.397.085-.737.085-1.02a51.346 51.346 0 0 0-.425-2.89c-.114-1.02-.17-2.04-.17-3.06v-.425c.056-.227.085-.453.085-.68.056-.283.085-.538.085-.765.056-.227.085-.368.085-.425a5.36 5.36 0 0 1 .34-.595c.17-.227.425-.425.765-.595.17-.057.453-.113.85-.17a8.345 8.345 0 0 1 1.19-.085c.396 0 .651.028.765.085.34.113.68.255 1.02.425.34.17.736.255 1.19.255.283 0 .566-.028.85-.085a5.68 5.68 0 0 1 .935-.085h.34c.283.227.595.425.935.595.34.113.595.397.765.85.17.283.198.793.085 1.53-.114.737-.085 1.417.085 2.04 0 .17.028.312.085.425.056.113.085.283.085.51v1.36c0 .397-.057.737-.17 1.02zm18.7-5.865c.056.113.311.17.765.17.113-.283-.029-.425-.425-.425-.227 0-.34.085-.34.255zm4.165.17c.113 0 .198.057.255.17.056.057.141.085.255.085.056-.057.113-.085.17-.085 0-.283-.142-.425-.425-.425-.17 0-.255.085-.255.255zm-28.73 1.53c.396 0 .623-.113.68-.34h-.255a.747.747 0 0 0-.34.085c-.114 0-.142.085-.085.255zm25.67.17c.056-.17.255-.255.595-.255h.765c.283 0 .453-.085.51-.255h-2.295c0 .34.141.51.425.51zm-23.8 1.36h.51c.396 0 .595-.113.595-.34h-.425c-.454 0-.68.113-.68.34zm23.29 0h.51a.512.512 0 0 0 .34-.34h-.085c0 .057-.057.085-.17.085h-.17c0-.057-.029-.085-.085-.085-.284 0-.397.113-.34.34zm2.04-.17h-.68c-.114 0-.17.057-.17.17.113 0 .198.028.255.085h.255c.17 0 .283-.085.34-.255zm-3.06 1.7c.566 0 .935-.113 1.105-.34-.057-.057-.17-.085-.34-.085-.397 0-.652.142-.765.425zm1.36-.17c.453.113.963.17 1.53.17.566 0 .963-.113 1.19-.34h-1.275c-.51 0-.992.057-1.445.17zm-22.95.17c.113 0 .198.028.255.085.056.057.141.085.255.085h.085c.056-.057.113-.085.17-.085.113-.283 0-.425-.34-.425-.284 0-.425.113-.425.34zm21.59 1.36h.34c.226 0 .34-.057.34-.17h-.17c0-.057-.029-.085-.085-.085-.284 0-.425.085-.425.255zM64.993 251.005c-.283.623-.651 1.048-1.105 1.275-.453.227-1.076.425-1.87.595-.34.057-.736.085-1.19.085a8.977 8.977 0 0 1-1.275.085c-.85 0-1.7-.057-2.55-.17a7.775 7.775 0 0 1-2.125-.595 3.594 3.594 0 0 1-.425-2.04 6.677 6.677 0 0 0 0-2.125c0-.34-.056-.68-.17-1.02a6.202 6.202 0 0 1-.085-1.02v-4.505c0-1.077.085-2.125.255-3.145.17-1.02.255-2.097.255-3.23a60.48 60.48 0 0 0-.255-3.315 17.047 17.047 0 0 1 0-3.4c0-.283.028-.595.085-.935.114-.34.17-.68.17-1.02 0-.623-.056-1.247-.17-1.87a6.914 6.914 0 0 1 .085-1.87c0-.283.029-.538.085-.765.114-.227.17-.482.17-.765.057-1.303-.085-2.663-.425-4.08-.283-1.473-.368-2.89-.255-4.25 0-.283.029-.567.085-.85.114-.283.17-.567.17-.85a24.7 24.7 0 0 0-.17-2.89 8.703 8.703 0 0 1 .17-2.975c.567-.453 1.275-.765 2.125-.935.85-.17 1.813-.255 2.89-.255h.85c.284 0 .482.057.595.17.17.113.369.17.595.17h.34c.17-.057.312-.085.425-.085.17 0 .312.028.425.085 1.077.227 1.785.68 2.125 1.36.34.623.454 1.587.34 2.89 0 .397-.056.793-.17 1.19a2.98 2.98 0 0 0-.17.935c0 .34.057.68.17 1.02.114.34.17.708.17 1.105 0 .283-.028.595-.085.935-.056.34-.085.652-.085.935 0 .34.057.68.17 1.02.114.283.17.567.17.85 0 .453-.085.878-.255 1.275-.113.397-.17.793-.17 1.19 0 .51.028 1.02.085 1.53.114.453.17.907.17 1.36a22.18 22.18 0 0 1-.425 1.87 7.08 7.08 0 0 0-.255 1.87c0 .283.057.538.17.765.113.17.17.34.17.51a11.25 11.25 0 0 1 0 1.955c0 .68.029 1.332.085 1.955 0 .34.057.708.17 1.105.17.34.255.68.255 1.02.114.793.085 1.53-.085 2.21-.17.68-.283 1.417-.34 2.21a10.318 10.318 0 0 0 0 1.87c.057.567.085 1.162.085 1.785 0 .453-.028.878-.085 1.275a9.044 9.044 0 0 0-.085 1.275 24.652 24.652 0 0 0-.085 3.57c.114 1.19.198 2.408.255 3.655zm-6.97-41.82h1.53c.284 0 .539-.057.765-.17h-.68a1.874 1.874 0 0 0-.595-.085c-.453 0-.793.085-1.02.255zm1.445 1.53c.227.113.368.17.425.17.17 0 .283-.113.34-.34 0-.113-.113-.17-.34-.17-.283 0-.425.113-.425.34zm1.87 1.53c.057-.057.142-.085.255-.085h.34c.17 0 .255-.028.255-.085h-.255c-.056-.057-.142-.085-.255-.085-.113 0-.226.085-.34.255zM81.86 234.515c-.17.227-.255.453-.255.68.056.17.085.397.085.68 0 .227-.057.453-.17.68a.914.914 0 0 0-.17.51c0 .34.056.68.17 1.02.113.283.17.567.17.85 0 .793-.057 1.558-.17 2.295a6.164 6.164 0 0 0 0 2.04c0 .34.056.68.17 1.02.113.283.17.567.17.85 0 .453-.085 1.02-.255 1.7a7.08 7.08 0 0 0-.255 1.87c0 .34.056.623.17.85.113.227.17.482.17.765-.114.623-.34 1.133-.68 1.53s-.68.737-1.02 1.02a2.778 2.778 0 0 0-.68-.085h-3.23c-.17 0-.454-.028-.85-.085-.397 0-.822-.028-1.275-.085a6.376 6.376 0 0 1-1.105-.255c-.34-.057-.595-.17-.765-.34-.227-.227-.482-.652-.765-1.275-.227-.623-.312-1.162-.255-1.615 0-.34.028-.822.085-1.445.056-.68.085-1.303.085-1.87a1.51 1.51 0 0 0-.17-.68 4.322 4.322 0 0 1-.085-.85 4.222 4.222 0 0 1-.085-1.445c.113-.453.17-.992.17-1.615a100.426 100.426 0 0 1-.085-4.335c0-1.643.028-3.088.085-4.335 0-.453.028-.85.085-1.19.056-.397.085-.793.085-1.19a44.788 44.788 0 0 0-.425-2.04c-.17-.737-.227-1.332-.17-1.785.113-.397.255-.737.425-1.02.17-.34.311-.737.425-1.19.113-.453.113-1.048 0-1.785a16.644 16.644 0 0 0-.255-2.04 1.782 1.782 0 0 1-.255-.935 16.9 16.9 0 0 1-.255-1.785 6.91 6.91 0 0 1 .085-1.87c0-.283.028-.538.085-.765l.34-.85v-.935c0-.113.028-.227.085-.34.113-.17.17-.283.17-.34 0-.793-.114-1.558-.34-2.295-.17-.737-.199-1.53-.085-2.38.113-.453.283-.935.51-1.445.283-.51.566-.822.85-.935.283-.113.708-.17 1.275-.17a22.84 22.84 0 0 0 1.785-.255 19.622 19.622 0 0 1 1.785-.085 16.975 16.975 0 0 1 1.7-.085h.935c.34 0 .651.057.935.17.623-.227 1.36-.34 2.21-.34.68 0 1.36.057 2.04.17.736.057 1.501.085 2.295.085.17 0 .368-.028.595-.085.226-.113.481-.17.765-.17a8.355 8.355 0 0 1 1.19-.085h1.19c1.756 0 3.513.142 5.27.425a18.06 18.06 0 0 1 5.1 1.445c.226.113.425.227.595.34.226.057.481.17.765.34.51.17 1.076.453 1.7.85.623.34 1.076.68 1.36 1.02a6.1 6.1 0 0 1 .255.765c.056.227.17.425.34.595.056.283.17.482.34.595.17.057.311.198.425.425.113.113.198.312.255.595.056.227.17.425.34.595.113.227.255.425.425.595l.425.425c.056.113.056.283 0 .51 0 .17.028.368.085.595.056.113.113.255.17.425.056.17.085.312.085.425.113.453.085.992-.085 1.615a8.196 8.196 0 0 0-.17 1.615c0 .567.028 1.105.085 1.615.113.453.17.85.17 1.19 0 .453-.085.907-.255 1.36a12.67 12.67 0 0 1-.425 1.36 7.416 7.416 0 0 1-.425 1.445c-.17.34-.397.737-.68 1.19-.057.113-.227.34-.51.68a17.223 17.223 0 0 1-2.04 2.04c-.284.283-.482.453-.595.51-.397.34-.879.623-1.445.85-.567.227-.907.737-1.02 1.53 0 .34.056.737.17 1.19.17.453.34.878.51 1.275l1.36 3.4 1.36 3.4c.113.227.198.425.255.595.056.17.113.397.17.68.113.34.255.68.425 1.02l.595 1.19c.34.737.68 1.672 1.02 2.805 0 .113.056.198.17.255.113.057.17.113.17.17.283 1.02.368 1.842.255 2.465-.114.34-.312.567-.595.68-.227.17-.482.397-.765.68H106c-.794 0-1.559.028-2.295.085-.68.113-1.332.17-1.955.17-.51 0-.879-.028-1.105-.085a8.775 8.775 0 0 1-1.7-.595c-.567-.283-.992-.652-1.275-1.105-.17-.34-.284-.68-.34-1.02 0-.397-.057-.765-.17-1.105a12.552 12.552 0 0 0-.425-.935c-.17-.34-.312-.68-.425-1.02-.17-.34-.312-.68-.425-1.02a6.72 6.72 0 0 0-.255-1.02 9.064 9.064 0 0 0-.51-.765l-.34-.85c-.114-.17-.142-.283-.085-.34.056-.113.028-.198-.085-.255a2.77 2.77 0 0 1-.34-.425l-.34-.68a1.469 1.469 0 0 1-.085-.85c.056-.34.028-.652-.085-.935a7.956 7.956 0 0 0-.595-1.87 9.246 9.246 0 0 1-.595-2.04 7.264 7.264 0 0 1-.935-.935c-.227-.397-.567-.708-1.02-.935h-.51a1.595 1.595 0 0 0-.51-.085c-.68 0-1.36.057-2.04.17-.624.057-1.247.085-1.87.085h-1.02a5.686 5.686 0 0 0-1.955 0c-.284.057-.567.227-.85.51zm-2.38-26.86h.68c.226-.057.396-.142.51-.255-.114-.057-.284-.085-.51-.085-.397 0-.624.113-.68.34zm-2.635 0c.453 0 .68-.085.68-.255H77.1c-.227 0-.312.085-.255.255zm1.785 0h.595v-.255h-.595v.255zm3.06-.17a.75.75 0 0 1-.34-.085c-.057-.057-.142-.085-.255-.085-.057 0-.142.057-.255.17.113.113.311.17.595.17.17 0 .255-.057.255-.17zm.85.17h.68c.17 0 .255-.057.255-.17 0-.057-.114-.085-.34-.085-.17 0-.34.028-.51.085-.17.057-.199.113-.085.17zm2.55-.17c-.114 0-.255-.028-.425-.085a1.595 1.595 0 0 0-.51-.085.578.578 0 0 0-.425.17c.226.113.51.17.85.17.283 0 .453-.057.51-.17zm.425 0c-.057 0-.085.028-.085.085.056.057.141.085.255.085h.34c.17 0 .34.028.51.085h.425c.17 0 .34-.085.51-.255a.578.578 0 0 0-.425-.17h-.51c-.51 0-.85.057-1.02.17zm4.08.17c.226.057.425.113.595.17h.51c.453 0 .793-.142 1.02-.425H90.36c-.454 0-.709.085-.765.255zm2.38 0h.595v-.255h-.595v.255zm-15.81 1.19c.056.17.17.283.34.34.226.057.481.085.765.085h.765c.226-.057.396-.142.51-.255-.34-.113-.765-.17-1.275-.17h-1.105zm15.47-.085c-.114.113-.227.17-.34.17-.114-.057-.227-.028-.34.085-.114-.113-.227-.17-.34-.17a.75.75 0 0 1-.34-.085c-.34.17-.652.255-.935.255h-.765a1.874 1.874 0 0 0-.595-.085c-.454 0-.765.085-.935.255.453 0 .935.028 1.445.085H91.38a4.498 4.498 0 0 0 1.02-.255c-.057 0-.114.028-.17.085h-.085c-.114 0-.199-.028-.255-.085a.56.56 0 0 0-.255-.255zm7.395.085c-.34.113-.595.17-.765.17a4.3 4.3 0 0 1-.85-.085 2.28 2.28 0 0 0-.85-.17c-.227 0-.482.085-.765.255l1.02.17c.34.057.651.085.935.085.566 0 .991-.142 1.275-.425zm-24.055.34c.113 0 .17.113.17.34.17-.113.34-.17.51-.17.17-.057.255-.227.255-.51h-.34c-.397 0-.595.113-.595.34zm4.505 0h.765c.226 0 .34-.113.34-.34h-.425c-.454 0-.68.113-.68.34zm1.7 0h.85c0-.17-.085-.255-.255-.255-.397 0-.595.085-.595.255zm2.295 0a.75.75 0 0 1 .34.085h.51c.34 0 .51-.142.51-.425h-.51c-.17 0-.34.028-.51.085-.17 0-.284.085-.34.255zm3.06-.17c-.114 0-.255-.028-.425-.085a.942.942 0 0 0-.425-.085h-.17c0 .283.141.425.425.425.34 0 .538-.085.595-.255zm6.885.17c.056-.227-.085-.34-.425-.34-.284 0-.425.057-.425.17.226-.113.368-.085.425.085.056.17.198.198.425.085zm-16.915 1.53c.17 0 .311.028.425.085h.425c.283 0 .481-.142.595-.425-.114-.057-.284-.085-.51-.085-.51 0-.822.142-.935.425zm16.575-.34c-.114.283-.085.397.085.34.226-.057.34 0 .34.17.056-.113.17-.17.34-.17h.425c.453 0 .623-.057.51-.17h-.34c-.284 0-.51-.028-.68-.085a.942.942 0 0 0-.425-.085h-.255zm4.845.17c.453.17.906.255 1.36.255.623 0 1.076-.142 1.36-.425h-1.53c-.34 0-.737.057-1.19.17zm-7.565.34c.113-.113.34-.17.68-.17h.85c.226 0 .396-.057.51-.17-.17-.057-.454-.085-.85-.085h-.68c-.34 0-.595-.028-.765-.085 0 .17.028.283.085.34.056 0 .113.057.17.17zm10.625-.17h.425c.283 0 .425-.113.425-.34h-.425c-.284 0-.425.113-.425.34zm2.04-.17c-.114-.113-.284-.17-.51-.17-.227 0-.34.057-.34.17.113.113.311.17.595.17.17 0 .255-.057.255-.17zm-27.71 0c-.057.057-.142.085-.255.085-.057-.057-.142-.085-.255-.085-.114 0-.17.057-.17.17.113.113.226.17.34.17.226 0 .34-.113.34-.34zm8.16.17c-.114-.113-.284-.17-.51-.17-.17 0-.255.057-.255.17.17.17.34.255.51.255.17 0 .255-.085.255-.255zm-9.69 1.36c.226.113.481.17.765.17.396 0 .595-.113.595-.34h-.17c-.057-.057-.142-.085-.255-.085-.284 0-.595.085-.935.255zm3.23 0c.113.113.34.17.68.17s.51-.057.51-.17a3.296 3.296 0 0 0-.425-.17.75.75 0 0 0-.34-.085c-.17 0-.312.085-.425.255zm22.44.17h.425c.17-.057.255-.17.255-.34h-.255c-.34 0-.482.113-.425.34zm3.995-.34h-1.275c0 .283.226.425.68.425.396 0 .595-.142.595-.425zm-20.06 13.26c.113 0 .17-.028.17-.085a2.47 2.47 0 0 1 .34-.255c.453-.113.821-.17 1.105-.17.396 0 .765.028 1.105.085.396.057.821.085 1.275.085h3.23c1.02 0 1.983-.057 2.89-.17.736-.113 1.303-.198 1.7-.255.396-.113.821-.255 1.275-.425.793-.963 1.445-2.097 1.955-3.4s.538-2.578.085-3.825c-.284-.68-.624-1.162-1.02-1.445-.397-.34-.964-.68-1.7-1.02h-.34a4.288 4.288 0 0 0-.425-.255 1.333 1.333 0 0 0-.255-.34c-.397-.113-.737-.17-1.02-.17a3.144 3.144 0 0 0-.765-.085h-1.02c-.34 0-.709-.057-1.105-.17-.397-.17-.765-.255-1.105-.255-.34 0-.709.028-1.105.085a8.355 8.355 0 0 1-1.19.085h-1.7c-.85 0-1.644.057-2.38.17-.737.057-1.36.312-1.87.765a18.629 18.629 0 0 0-.34 3.655c0 .397.056.793.17 1.19.113.397.226.822.34 1.275a6.217 6.217 0 0 1-.085 2.295c-.114.737.028 1.473.425 2.21.17.057.368.142.595.255.226.113.481.17.765.17zm17.17-11.56c.34.113.595.17.765.17a.753.753 0 0 0 .34-.085c0-.283-.199-.425-.595-.425-.34 0-.51.113-.51.34zm-21.335-.17c-.057.057-.17.085-.34.085h-.425c-.17 0-.255.028-.255.085.226.113.481.17.765.17.17 0 .255-.113.255-.34zm-2.72 1.785c.056-.057.141-.057.255 0a.75.75 0 0 0 .34.085c.17 0 .226-.113.17-.34h-.425c-.227 0-.34.085-.34.255zm27.2 0c.623 0 .708-.028.255-.085a9.674 9.674 0 0 1-.935-.17h-.34c0 .17.17.255.51.255h.51zm1.02 4.59h.34c.283 0 .425-.113.425-.34h-.34c-.284 0-.425.113-.425.34zm-20.57 9.01c.113-.057.255-.057.425 0 .226.057.425.085.595.085.226 0 .34-.085.34-.255-.057 0-.199.028-.425.085h-.68a.942.942 0 0 0-.425.085h.17zm4.59 1.53h1.19c0-.17-.114-.255-.34-.255-.397 0-.68.085-.85.255zM125.763 251.005c-.284.623-.652 1.048-1.105 1.275-.454.227-1.077.425-1.87.595-.34.057-.737.085-1.19.085a8.985 8.985 0 0 1-1.275.085c-.85 0-1.7-.057-2.55-.17a7.763 7.763 0 0 1-2.125-.595 3.59 3.59 0 0 1-.425-2.04 6.7 6.7 0 0 0 0-2.125c0-.34-.057-.68-.17-1.02a6.158 6.158 0 0 1-.085-1.02v-4.505c0-1.077.085-2.125.255-3.145.17-1.02.255-2.097.255-3.23a61.283 61.283 0 0 0-.255-3.315 16.943 16.943 0 0 1 0-3.4c0-.283.028-.595.085-.935.113-.34.17-.68.17-1.02 0-.623-.057-1.247-.17-1.87a6.87 6.87 0 0 1 .085-1.87c0-.283.028-.538.085-.765.113-.227.17-.482.17-.765.056-1.303-.085-2.663-.425-4.08-.284-1.473-.369-2.89-.255-4.25a4.3 4.3 0 0 1 .085-.85 2.28 2.28 0 0 0 .17-.85c0-.963-.057-1.927-.17-2.89a8.675 8.675 0 0 1 .17-2.975c.566-.453 1.275-.765 2.125-.935.85-.17 1.813-.255 2.89-.255h.85c.283 0 .481.057.595.17.17.113.368.17.595.17h.34c.17-.057.311-.085.425-.085.17 0 .311.028.425.085 1.076.227 1.785.68 2.125 1.36.34.623.453 1.587.34 2.89 0 .397-.057.793-.17 1.19a2.96 2.96 0 0 0-.17.935c0 .34.056.68.17 1.02.113.34.17.708.17 1.105a5.8 5.8 0 0 1-.085.935 5.69 5.69 0 0 0-.085.935c0 .34.056.68.17 1.02.113.283.17.567.17.85 0 .453-.085.878-.255 1.275-.114.397-.17.793-.17 1.19 0 .51.028 1.02.085 1.53.113.453.17.907.17 1.36a22.458 22.458 0 0 1-.425 1.87 7.08 7.08 0 0 0-.255 1.87c0 .283.056.538.17.765.113.17.17.34.17.51a11.39 11.39 0 0 1 0 1.955c0 .68.028 1.332.085 1.955 0 .34.056.708.17 1.105.17.34.255.68.255 1.02.113.793.085 1.53-.085 2.21-.17.68-.284 1.417-.34 2.21a10.246 10.246 0 0 0 0 1.87c.056.567.085 1.162.085 1.785 0 .453-.029.878-.085 1.275a8.985 8.985 0 0 0-.085 1.275 24.496 24.496 0 0 0-.085 3.57 74.79 74.79 0 0 1 .255 3.655zm-6.97-41.82h1.53c.283 0 .538-.057.765-.17h-.68a1.877 1.877 0 0 0-.595-.085c-.454 0-.794.085-1.02.255zm1.445 1.53c.226.113.368.17.425.17.17 0 .283-.113.34-.34 0-.113-.114-.17-.34-.17-.284 0-.425.113-.425.34zm1.87 1.53c.056-.057.141-.085.255-.085h.34c.17 0 .255-.028.255-.085h-.255c-.057-.057-.142-.085-.255-.085-.114 0-.227.085-.34.255zM155.357 204c.227.113.454.255.68.425l.68.34c1.077.113 2.04.368 2.89.765.85.397 1.672.822 2.465 1.275.284.227.567.397.85.51.34.113.652.283.935.51.284.17.567.425.85.765.34.34.624.652.85.935.17.283.34.623.51 1.02.17.34.397.708.68 1.105.284.453.595.85.935 1.19.34.283.51.567.51.85 0 .51-.141.907-.425 1.19-.226.283-.51.567-.85.85-.283.34-.595.623-.935.85-.283.17-.595.34-.935.51h-.255c-.283 0-.51-.028-.68-.085a1.595 1.595 0 0 0-.51-.085 5.284 5.284 0 0 0-1.785.68c-.51.34-1.02.51-1.53.51h-.255c-.51 0-.906-.198-1.19-.595-.226-.397-.51-.822-.85-1.275a5.145 5.145 0 0 0-1.02-1.19 7.186 7.186 0 0 0-.935-.935c-.226-.057-.51-.113-.85-.17a16.914 16.914 0 0 0-.935-.34 5.964 5.964 0 0 1-.85-.425 4.392 4.392 0 0 0-.68-.425c-.226 0-.453.028-.68.085-.17.057-.396.085-.68.085-.226 0-.425-.028-.595-.085a2.198 2.198 0 0 0-.68-.085c-.17 0-.34.057-.51.17-.17.057-.34.085-.51.085h-.765a2.293 2.293 0 0 0-.51-.085c-.793.113-1.445.425-1.955.935-.453.51-.906 1.077-1.36 1.7.057.453 0 .878-.17 1.275-.17.34-.198.708-.085 1.105.114.623.425 1.162.935 1.615.567.453 1.077.85 1.53 1.19.114.057.284.085.51.085h.51c.227 0 .425.028.595.085.454.453.992.737 1.615.85a7.73 7.73 0 0 1 2.125.51l.51.255c.17.057.369.142.595.255a.944.944 0 0 0 .425.085h.51c.17-.057.369-.085.595-.085l1.36.34c.51.113 1.049.17 1.615.17h.51c.51.51 1.134.793 1.87.85a5.578 5.578 0 0 0 2.21 1.36c.85.283 1.672.708 2.465 1.275.34.283.68.623 1.02 1.02.34.34.737.68 1.19 1.02.34.227.567.397.68.51.114.057.17.17.17.34.057.113.142.227.255.34.227.17.397.34.51.51.17.17.312.34.425.51.114.283.17.567.17.85.057.283.142.567.255.85.114.227.199.425.255.595.114.113.199.283.255.51.17.453.284.992.34 1.615.114.567.17 1.105.17 1.615 0 .737-.141 1.502-.425 2.295-.226.737-.198 1.502.085 2.295-.17.397-.283.822-.34 1.275-.056.397-.255.68-.595.85-.113.623-.34 1.077-.68 1.36-.34.283-.566.737-.68 1.36a6.493 6.493 0 0 0-2.38 1.87 8.076 8.076 0 0 1-2.21 1.955 16.47 16.47 0 0 1-1.36.765c-.453.227-.906.425-1.36.595-.283.113-.538.227-.765.34a3.043 3.043 0 0 1-.765.255c-.283.057-.538.17-.765.34-.17.17-.396.283-.68.34-.283.113-.595.17-.935.17h-.935c-.34.057-.651.113-.935.17a4.292 4.292 0 0 1-.85.085 7.8 7.8 0 0 1-1.105-.085 7.79 7.79 0 0 0-1.105-.085c-.283 0-.566.057-.85.17-.226.113-.51.17-.85.17a5.69 5.69 0 0 1-.935-.085 8.006 8.006 0 0 1-.935-.255 45.983 45.983 0 0 1-3.74-.34c-1.303-.113-2.493-.453-3.57-1.02l-1.02-.34a2.689 2.689 0 0 1-.85-.34c-.283-.113-.481-.227-.595-.34-.056-.113-.198-.227-.425-.34a1.901 1.901 0 0 0-.595-.255 3.338 3.338 0 0 1-.425-.17c-.396-.283-.878-.708-1.445-1.275a28.28 28.28 0 0 1-1.7-1.87c-.51-.737-.991-1.445-1.445-2.125-.396-.68-.68-1.218-.85-1.615 0-.907.085-1.672.255-2.295.17-.68.68-1.19 1.53-1.53.284-.113.595-.17.935-.17a8.992 8.992 0 0 0 1.19-.255c.114 0 .397-.113.85-.34.34-.113.737-.227 1.19-.34.454-.113.907-.17 1.36-.17.68 0 1.219.17 1.615.51.397.283.737.652 1.02 1.105.34.453.652.935.935 1.445.34.51.765.963 1.275 1.36.34.227.964.538 1.87.935.964.34 1.672.51 2.125.51.114.113.284.227.51.34l.85.34c.284.057.624.085 1.02.085h1.19c.17 0 .369-.028.595-.085a2.1 2.1 0 0 1 .765-.17c.227 0 .425.028.595.085h.595a.94.94 0 0 0 .425-.085c.114 0 .34-.057.68-.17.34-.17.709-.34 1.105-.51.397-.17.737-.34 1.02-.51.34-.17.539-.283.595-.34l.425-.425c.17-.17.284-.312.34-.425.057-.113.057-.283 0-.51 0-.283.029-.567.085-.85l.34-1.02a2.417 2.417 0 0 0 0-1.275c-.113-.283-.396-.68-.85-1.19a4.096 4.096 0 0 1-.595-.51c-.226-.283-.396-.453-.51-.51a3.683 3.683 0 0 0-1.36-.595c-.51-.113-.935-.397-1.275-.85a169.93 169.93 0 0 0-3.57-.85c-1.246-.283-2.295-.737-3.145-1.36-.17 0-.566-.057-1.19-.17a41.68 41.68 0 0 0-1.87-.51c-.68-.17-1.331-.34-1.955-.51-.566-.17-.963-.312-1.19-.425a1.366 1.366 0 0 1-.34-.255l-.34-.34c-.113-.113-.283-.17-.51-.17h-.425l-1.02-.85a13.88 13.88 0 0 0-.935-.85 6.25 6.25 0 0 0-.68-.595l-.765-.765c-.34-.397-.68-1.048-1.02-1.955a4.519 4.519 0 0 1-.425-.68c-.113-.283-.198-.51-.255-.68-.113-.283-.141-.51-.085-.68.057-.17.029-.397-.085-.68l-.34-.51-.17-.51a2.28 2.28 0 0 1-.17-.85c0-.34-.056-.708-.17-1.105a12.86 12.86 0 0 0-.34-1.275c-.056-.34-.028-.765.085-1.275 0-.113.029-.17.085-.17.114 0 .17-.057.17-.17v-.085c-.056-.057-.085-.142-.085-.255.114-.68.255-1.303.425-1.87.114-.397.284-.822.51-1.275.227-.51.454-.992.68-1.445.227-.397.482-.765.765-1.105.284-.397.482-.85.595-1.36.624-.51 1.304-1.02 2.04-1.53a27.995 27.995 0 0 1 2.38-1.53c.057 0 .425-.113 1.105-.34.737-.283 1.53-.567 2.38-.85.85-.34 1.644-.623 2.38-.85.737-.283 1.134-.425 1.19-.425h.17c.057-.057.142-.085.255-.085.284 0 .567.057.85.17.34.057.737.085 1.19.085h3.315c.284 0 .539.028.765.085.227.057.482.085.765.085h.255zm-.595 2.125H155.612c.17 0 .284-.028.34-.085-.34-.113-.595-.17-.765-.17-.17 0-.311.085-.425.255zm-6.46 1.53h.425c.227-.057.34-.142.34-.255-.51 0-.765.085-.765.255zm1.955-.17h-.51c-.056-.057-.113-.085-.17-.085-.056 0-.113.028-.17.085.114.113.312.17.595.17.17 0 .255-.057.255-.17zm.17.17c.057-.057.114-.085.17-.085.114 0 .199.028.255.085h.17c.17 0 .255-.057.255-.17-.056-.057-.226-.085-.51-.085-.226 0-.34.085-.34.255zm6.545 0h.68c.114 0 .17-.057.17-.17-.056-.057-.226-.085-.51-.085-.226 0-.34.085-.34.255zm-8.67 1.19c-.056-.113-.17-.17-.34-.17-.283 0-.481.113-.595.34.17.113.539.17 1.105.17h1.275a.51.51 0 0 0-.34-.34 1.595 1.595 0 0 0-.51-.085.753.753 0 0 0-.34.085h-.255zm-7.99.34c.114 0 .227.028.34.085h.34c.284 0 .425-.142.425-.425h-.34a.747.747 0 0 0-.34-.085c-.283 0-.425.142-.425.425zm10.115 0h.51c.227 0 .397-.057.51-.17h.595c.34-.057.369-.113.085-.17h-1.19c-.283 0-.453.113-.51.34zm-5.525 0c.114.057.34.085.68.085.397 0 .765-.085 1.105-.255-.226-.113-.538-.17-.935-.17-.17 0-.34.028-.51.085-.17.057-.283.142-.34.255zm9.095-.17c-.226-.113-.595-.17-1.105-.17 0 .34.17.51.51.51.34 0 .539-.113.595-.34zm1.785.17a.944.944 0 0 1 .425-.085 1.39 1.39 0 0 1 .425-.085l.255-.085c0-.057-.141-.085-.425-.085h-.34c-.17 0-.34.028-.51.085-.17 0-.255.085-.255.255h.425zm2.21 0h.68c.17 0 .255-.057.255-.17h-.34c-.056-.057-.141-.085-.255-.085-.226 0-.34.085-.34.255zm-16.405 1.36c-.056-.113-.198-.17-.425-.17-.226 0-.368.057-.425.17.17.113.482.17.935.17h1.19c-.056-.283-.226-.425-.51-.425a1.39 1.39 0 0 0-.425.085l-.34.17zm4.675.17c.17.17.34.255.51.255.17 0 .34-.028.51-.085.227-.113.482-.17.765-.17h.255c-.113-.283-.368-.425-.765-.425-.283 0-.538.057-.765.17-.226.057-.396.142-.51.255zm8.67-.17c.114 0 .227.028.34.085h.425c.227 0 .369-.085.425-.255-.056-.057-.17-.085-.34-.085-.453 0-.736.085-.85.255zm-9.35.17c.057-.227-.113-.34-.51-.34-.34 0-.51.057-.51.17.114 0 .227.057.34.17.17.057.312.085.425.085h.085c.057-.057.114-.085.17-.085zm5.865-.17c-.056-.113-.283-.17-.68-.17-.113.283 0 .425.34.425.227 0 .34-.085.34-.255zm1.7-.17h-.68c-.113.113-.141.198-.085.255a.753.753 0 0 0 .34.085c.34 0 .482-.113.425-.34zm4.675.34c.057-.227-.056-.34-.34-.34-.226 0-.34.057-.34.17.114.113.34.17.68.17zm2.04-.34h-1.615c0 .283.255.425.765.425.567 0 .85-.142.85-.425zm-21.165 1.53c-.283 0-.425.028-.425.085l.17.085h.425c.227-.057.397-.113.51-.17h-.68zm2.89.17c-.113 0-.198-.028-.255-.085-.056-.113-.198-.142-.425-.085-.17.227-.056.34.34.34.227 0 .34-.057.34-.17zm2.295-.17c-.056.057-.198.085-.425.085h-.51c-.283 0-.481.028-.595.085.114 0 .255.028.425.085.227.057.454.085.68.085.284 0 .425-.113.425-.34zm13.09.34h.51v-.34h-.51v.34zm5.015-.17c-.226-.113-.425-.17-.595-.17-.226 0-.51.057-.85.17l-.17-.085h-.255c-.226 0-.255.085-.085.255.114-.057.312-.085.595-.085.284 0 .539.028.765.085.284.057.539.085.765.085.397 0 .652-.142.765-.425h-.17a.944.944 0 0 0-.425.085.747.747 0 0 1-.34.085zm-3.315 1.615c.17 0 .34-.085.51-.255-.056-.057-.141-.085-.255-.085-.226 0-.311.113-.255.34zm-18.615 0c.114.113.255.17.425.17.34 0 .51-.142.51-.425h-.425c-.34 0-.51.085-.51.255zm2.465 0c.114-.17 0-.255-.34-.255s-.51.057-.51.17c.114.057.397.085.85.085zm17 0c.114.113.312.17.595.17.397 0 .68-.085.85-.255-.226-.113-.51-.17-.85-.17-.283 0-.481.085-.595.255zm-20.655 1.53c.114.057.369.085.765.085.567 0 1.02-.085 1.36-.255h-.595a2.772 2.772 0 0 0-.68-.085c-.453 0-.736.085-.85.255zm1.02 3.06c.114.113.199.17.255.17.227 0 .397-.113.51-.34l-.34-.17c-.17 0-.311.113-.425.34zm21.08 16.66c.057-.057.17-.085.34-.085h.34c.114 0 .17-.028.17-.085a.753.753 0 0 1-.34-.085c-.056-.057-.141-.085-.255-.085-.113 0-.198.113-.255.34zM186.277 213.35c.227.567.369 1.275.425 2.125a38.1 38.1 0 0 1 0 5.1c-.056.85-.085 1.587-.085 2.21.284.283.652.453 1.105.51.51.057 1.02.085 1.53.085h1.53c.51-.057.964-.085 1.36-.085.284 0 .567-.028.85-.085.284-.057.567-.085.85-.085.17 0 .34.028.51.085.17.057.34.085.51.085H198.517c.114 0 .199-.057.255-.17a.579.579 0 0 1 .425-.17c.17-.057.397-.085.68-.085h1.105c.227-.057.454-.17.68-.34.057-.68.085-1.36.085-2.04 0-.68.057-1.417.17-2.21.114-.283.199-.567.255-.85.114-.34.17-.68.17-1.02 0-.68-.056-1.332-.17-1.955a21.85 21.85 0 0 1-.085-1.955c0-.567.029-1.105.085-1.615a15.43 15.43 0 0 0 .085-1.53c0-.793-.085-1.502-.255-2.125-.113-.623.057-1.218.51-1.785.057-.113.17-.227.34-.34.227-.113.369-.227.425-.34.34-.113.567-.17.68-.17h3.74c.34 0 .935.028 1.785.085.907.057 1.474.142 1.7.255.454.283.765.793.935 1.53.227.68.34 1.473.34 2.38.057.907.057 1.842 0 2.805-.056.907-.113 1.7-.17 2.38-.113.34-.17.85-.17 1.53v1.7c0 .793.057 1.615.17 2.465.114.85.199 1.53.255 2.04v1.53c0 .113-.056.283-.17.51-.056.17-.085.34-.085.51a17.953 17.953 0 0 0 0 3.485c.17 1.133.227 2.182.17 3.145 0 .283-.056.538-.17.765-.113.227-.17.482-.17.765a5.2 5.2 0 0 0 0 1.87c.114.567.17 1.133.17 1.7 0 .34-.056.68-.17 1.02-.113.34-.17.68-.17 1.02 0 .907.029 1.813.085 2.72.057.85.142 1.672.255 2.465 0 .453-.028.878-.085 1.275a9.135 9.135 0 0 0-.085 1.275c0 .283.057.538.17.765.114.227.17.482.17.765a8.72 8.72 0 0 1-.34 2.975c-.283.963-.68 1.615-1.19 1.955-.283.113-.538.227-.765.34a8.264 8.264 0 0 0-.595.17c-.17.057-.283.085-.34.085h-.34c-.453 0-.935-.028-1.445-.085-.51-.057-1.02-.085-1.53-.085h-1.105a4.292 4.292 0 0 1-.85.085c-.51 0-.906-.142-1.19-.425-.283-.283-.51-.652-.68-1.105a8.56 8.56 0 0 1-.255-1.275c-.056-.51-.085-.935-.085-1.275 0-.34.057-.68.17-1.02.114-.34.17-.68.17-1.02 0-.453-.028-.878-.085-1.275a12.27 12.27 0 0 0-.255-1.275c-.056-.453-.113-.85-.17-1.19v-1.105c0-.793.085-1.502.255-2.125.17-.623.255-1.275.255-1.955 0-.793-.085-1.53-.255-2.21-.113-.68-.17-1.473-.17-2.38-.283-.283-.651-.425-1.105-.425a2.99 2.99 0 0 0-.935.17 5.68 5.68 0 0 1-.935.085h-.595c-.566 0-1.105-.028-1.615-.085a7.447 7.447 0 0 0-1.615-.17c-.34 0-.651.057-.935.17a4.748 4.748 0 0 1-.935.085c-.226 0-.453-.028-.68-.085a.917.917 0 0 0-.51-.17c-.396 0-.793.028-1.19.085a7.28 7.28 0 0 1-1.19.085h-1.19c-.226 0-.453.028-.68.085-.226 0-.425.057-.595.17-.453.567-.595 1.162-.425 1.785.17.623.255 1.275.255 1.955 0 .34-.056.708-.17 1.105-.113.397-.17.793-.17 1.19 0 .283.029.567.085.85.057.283.085.595.085.935 0 .283-.028.595-.085.935a4.376 4.376 0 0 0-.085.85c0 .34.057.652.17.935.114.283.17.652.17 1.105 0 .34-.056.708-.17 1.105-.113.397-.17.765-.17 1.105 0 .283.029.567.085.85a4.3 4.3 0 0 1 .085.85c.114.68.17 1.218.17 1.615 0 .34-.226.737-.68 1.19-.283.283-.538.482-.765.595-.17.17-.481.312-.935.425-.283.227-.623.34-1.02.34-.453 0-.906-.057-1.36-.17a4.628 4.628 0 0 0-1.275-.17c-.453 0-.878.028-1.275.085-.396.113-.821.17-1.275.17a.753.753 0 0 1-.34-.085h-.34c-.283-.283-.538-.482-.765-.595-.226-.113-.425-.312-.595-.595-.113-.34-.141-.765-.085-1.275.057-.51.057-1.162 0-1.955a1.5 1.5 0 0 0-.17-.68 2.28 2.28 0 0 1-.17-.85 11.645 11.645 0 0 1 0-2.805c0-.51.057-.992.17-1.445.114-.453.199-.907.255-1.36a5.628 5.628 0 0 0 0-1.955 15.691 15.691 0 0 1 0-2.295c.114-.963.199-1.898.255-2.805.057-.963.085-1.927.085-2.89 0-1.247-.141-2.465-.425-3.655-.226-1.247-.283-2.437-.17-3.57.114-.51.227-.963.34-1.36.17-.453.255-.85.255-1.19.057-.68 0-1.502-.17-2.465a10.944 10.944 0 0 1 0-2.72c0-.34.029-.708.085-1.105a7.33 7.33 0 0 0 .085-1.02 50.446 50.446 0 0 0-.425-2.89 27.77 27.77 0 0 1-.17-3.06v-.425c.057-.227.085-.453.085-.68.057-.283.085-.538.085-.765.057-.227.085-.368.085-.425.114-.227.227-.425.34-.595.17-.227.425-.425.765-.595.17-.057.454-.113.85-.17a8.366 8.366 0 0 1 1.19-.085c.397 0 .652.028.765.085.34.113.68.255 1.02.425.34.17.737.255 1.19.255.284 0 .567-.028.85-.085a5.69 5.69 0 0 1 .935-.085h.34c.284.227.595.425.935.595.34.113.595.397.765.85.17.283.199.793.085 1.53-.113.737-.085 1.417.085 2.04 0 .17.029.312.085.425.057.113.085.283.085.51v1.36c0 .397-.056.737-.17 1.02zm18.7-5.865c.057.113.312.17.765.17.114-.283-.028-.425-.425-.425-.226 0-.34.085-.34.255zm4.165.17c.114 0 .199.057.255.17.057.057.142.085.255.085.057-.057.114-.085.17-.085 0-.283-.141-.425-.425-.425-.17 0-.255.085-.255.255zm-28.73 1.53c.397 0 .624-.113.68-.34h-.255a.753.753 0 0 0-.34.085c-.113 0-.141.085-.085.255zm25.67.17c.057-.17.255-.255.595-.255h.765c.284 0 .454-.085.51-.255h-2.295c0 .34.142.51.425.51zm-23.8 1.36h.51c.397 0 .595-.113.595-.34h-.425c-.453 0-.68.113-.68.34zm23.29 0h.51a.51.51 0 0 0 .34-.34h-.085c0 .057-.056.085-.17.085h-.17c0-.057-.028-.085-.085-.085-.283 0-.396.113-.34.34zm2.04-.17h-.68c-.113 0-.17.057-.17.17.114 0 .199.028.255.085h.255c.17 0 .284-.085.34-.255zm-3.06 1.7c.567 0 .935-.113 1.105-.34-.056-.057-.17-.085-.34-.085-.396 0-.651.142-.765.425zm1.36-.17c.454.113.964.17 1.53.17.567 0 .964-.113 1.19-.34h-1.275c-.51 0-.991.057-1.445.17zm-22.95.17c.114 0 .199.028.255.085.057.057.142.085.255.085h.085c.057-.057.114-.085.17-.085.114-.283 0-.425-.34-.425-.283 0-.425.113-.425.34zm21.59 1.36h.34c.227 0 .34-.057.34-.17h-.17c0-.057-.028-.085-.085-.085-.283 0-.425.085-.425.255z" fill="#fff"/>
</svg>
