<svg width="39" height="38" viewBox="0 0 39 38" fill="none" xmlns="http://www.w3.org/2000/svg">
    <path d="M19.813 7.317c3.804 0 4.256.015 5.759.083 1.39.063 2.142.297 2.644.49.665.26 1.14.569 1.64 1.067.498.5.807.974 1.066 1.64.194.501.427 1.255.49 2.645.069 1.508.083 1.96.083 5.76s-.014 4.259-.083 5.759c-.063 1.389-.297 2.145-.49 2.648a4.423 4.423 0 0 1-1.067 1.638 4.423 4.423 0 0 1-1.639 1.067c-.502.195-1.256.427-2.645.49-1.508.07-1.96.083-5.76.083s-4.26-.014-5.76-.083c-1.388-.063-2.145-.297-2.647-.49a4.421 4.421 0 0 1-1.639-1.067A4.422 4.422 0 0 1 8.7 27.41c-.195-.504-.428-1.26-.49-2.648-.07-1.503-.084-1.954-.084-5.76s.014-4.255.083-5.76c.063-1.389.297-2.14.49-2.643A4.423 4.423 0 0 1 9.766 8.96a4.422 4.422 0 0 1 1.639-1.067c.503-.194 1.259-.427 2.648-.49 1.502-.069 1.953-.083 5.76-.083v-.003zm0-2.567c-3.872 0-4.356.017-5.876.085-1.517.07-2.553.31-3.46.663a7.03 7.03 0 0 0-2.529 1.644c-.795.792-1.272 1.586-1.637 2.524-.353.905-.594 1.942-.663 3.458-.069 1.52-.085 2.007-.085 5.876s.016 4.356.085 5.876c.069 1.516.309 2.553.663 3.459a7.03 7.03 0 0 0 1.643 2.53 7 7 0 0 0 2.524 1.642c.902.354 1.938.593 3.455.665 1.52.067 2.007.083 5.878.083 3.872 0 4.352-.016 5.872-.083 1.517-.072 2.554-.31 3.46-.665a6.94 6.94 0 0 0 2.523-1.643 7.003 7.003 0 0 0 1.644-2.524c.351-.905.593-1.942.661-3.458.069-1.52.086-2.007.086-5.876s-.018-4.356-.087-5.876c-.069-1.516-.309-2.553-.663-3.459a6.981 6.981 0 0 0-1.644-2.523 6.99 6.99 0 0 0-2.524-1.644c-.902-.351-1.94-.594-3.456-.661-1.516-.078-2.003-.093-5.87-.093z" fill="#fff"/>
    <path d="M19.813 11.683a7.319 7.319 0 0 0 0 14.634A7.32 7.32 0 0 0 27.13 19a7.32 7.32 0 0 0-7.317-7.317zm0 12.067a4.749 4.749 0 0 1-4.75-4.75 4.749 4.749 0 0 1 4.75-4.75 4.749 4.749 0 0 1 4.75 4.75 4.749 4.749 0 0 1-4.75 4.75zM27.42 13.103a1.71 1.71 0 1 0 0-3.42 1.71 1.71 0 0 0 0 3.42z" fill="#fff"/>
</svg>
