<svg width="38" height="38" viewBox="0 0 38 38" fill="none" xmlns="http://www.w3.org/2000/svg">
    <path d="M19 7.317c3.805 0 4.256.015 5.76.083 1.389.063 2.142.297 2.644.49.665.26 1.14.569 1.639 1.067.498.5.807.974 1.066 1.64.195.501.428 1.255.49 2.645.07 1.508.084 1.96.084 5.76s-.015 4.259-.084 5.759c-.062 1.389-.296 2.145-.49 2.648a4.423 4.423 0 0 1-1.066 1.638 4.423 4.423 0 0 1-1.64 1.067c-.501.195-1.255.427-2.645.49-1.508.07-1.96.083-5.76.083s-4.259-.014-5.759-.083c-1.389-.063-2.145-.297-2.648-.49a4.422 4.422 0 0 1-1.638-1.067 4.422 4.422 0 0 1-1.067-1.638c-.195-.504-.427-1.26-.49-2.648-.07-1.503-.083-1.954-.083-5.76s.014-4.255.083-5.76c.063-1.389.297-2.14.49-2.643A4.423 4.423 0 0 1 8.953 8.96a4.423 4.423 0 0 1 1.638-1.067c.504-.194 1.26-.427 2.648-.49 1.503-.069 1.954-.083 5.76-.083L19 7.317zm0-2.567c-3.871 0-4.356.017-5.876.085-1.516.07-2.553.31-3.459.663a7.03 7.03 0 0 0-2.53 1.644c-.795.792-1.271 1.586-1.637 2.524-.353.905-.594 1.942-.663 3.458-.068 1.52-.085 2.007-.085 5.876s.017 4.356.085 5.876c.07 1.516.31 2.553.663 3.459a7.03 7.03 0 0 0 1.644 2.53 7 7 0 0 0 2.523 1.642c.903.354 1.938.593 3.456.665 1.52.067 2.007.083 5.878.083s4.352-.016 5.872-.083c1.516-.072 2.553-.31 3.46-.665a6.94 6.94 0 0 0 2.523-1.643 7.003 7.003 0 0 0 1.643-2.524c.352-.905.594-1.942.662-3.458.068-1.52.085-2.007.085-5.876s-.018-4.356-.087-5.876c-.068-1.516-.308-2.553-.662-3.459a6.981 6.981 0 0 0-1.645-2.523 6.99 6.99 0 0 0-2.523-1.644c-.903-.351-1.94-.594-3.456-.661-1.516-.078-2.003-.093-5.871-.093z" fill="#76A09F"/>
    <path d="M19 11.683a7.319 7.319 0 0 0 0 14.634A7.32 7.32 0 0 0 26.318 19 7.32 7.32 0 0 0 19 11.683zm0 12.067A4.749 4.749 0 0 1 14.25 19 4.749 4.749 0 0 1 19 14.25 4.749 4.749 0 0 1 23.75 19 4.749 4.749 0 0 1 19 23.75zM26.607 13.103a1.71 1.71 0 1 0 0-3.42 1.71 1.71 0 0 0 0 3.42z" fill="#76A09F"/>
</svg>
