<svg width="38" height="38" viewBox="0 0 38 38" fill="none" xmlns="http://www.w3.org/2000/svg">
    <path d="M35.625 9.425a12.646 12.646 0 0 1-3.639.998 6.346 6.346 0 0 0 2.785-3.505 12.702 12.702 0 0 1-4.023 1.538 6.335 6.335 0 0 0-10.793 5.776c-5.265-.263-9.931-2.786-13.057-6.619a6.319 6.319 0 0 0-.856 3.186 6.33 6.33 0 0 0 2.817 5.271 6.32 6.32 0 0 1-2.87-.792v.08c0 3.07 2.183 5.63 5.082 6.21a6.336 6.336 0 0 1-2.86.11 6.342 6.342 0 0 0 5.917 4.4A12.705 12.705 0 0 1 6.26 28.79c-.51 0-1.015-.03-1.511-.09a17.934 17.934 0 0 0 9.71 2.846c11.652 0 18.021-9.652 18.021-18.023 0-.274-.005-.547-.017-.82a12.89 12.89 0 0 0 3.162-3.278z" fill="#fff"/>
</svg>
